<svg id="visual" viewBox="0 0 960 540" width="960" height="540" xmlns="http://www.w3.org/2000/svg" xmlns:xlink="http://www.w3.org/1999/xlink" version="1.1"><rect x="0" y="0" width="960" height="540" fill="#202731"></rect><defs><linearGradient id="grad1_0" x1="43.8%" y1="100%" x2="100%" y2="0%"><stop offset="14.444444444444446%" stop-color="#0066ff" stop-opacity="1"></stop><stop offset="85.55555555555554%" stop-color="#0066ff" stop-opacity="1"></stop></linearGradient></defs><defs><linearGradient id="grad1_1" x1="43.8%" y1="100%" x2="100%" y2="0%"><stop offset="14.444444444444446%" stop-color="#0066ff" stop-opacity="1"></stop><stop offset="85.55555555555554%" stop-color="#0055b9" stop-opacity="1"></stop></linearGradient></defs><defs><linearGradient id="grad1_2" x1="43.8%" y1="100%" x2="100%" y2="0%"><stop offset="14.444444444444446%" stop-color="#043f73" stop-opacity="1"></stop><stop offset="85.55555555555554%" stop-color="#0055b9" stop-opacity="1"></stop></linearGradient></defs><defs><linearGradient id="grad1_3" x1="43.8%" y1="100%" x2="100%" y2="0%"><stop offset="14.444444444444446%" stop-color="#043f73" stop-opacity="1"></stop><stop offset="85.55555555555554%" stop-color="#202731" stop-opacity="1"></stop></linearGradient></defs><defs><linearGradient id="grad2_0" x1="0%" y1="100%" x2="56.3%" y2="0%"><stop offset="14.444444444444446%" stop-color="#0066ff" stop-opacity="1"></stop><stop offset="85.55555555555554%" stop-color="#0066ff" stop-opacity="1"></stop></linearGradient></defs><defs><linearGradient id="grad2_1" x1="0%" y1="100%" x2="56.3%" y2="0%"><stop offset="14.444444444444446%" stop-color="#0055b9" stop-opacity="1"></stop><stop offset="85.55555555555554%" stop-color="#0066ff" stop-opacity="1"></stop></linearGradient></defs><defs><linearGradient id="grad2_2" x1="0%" y1="100%" x2="56.3%" y2="0%"><stop offset="14.444444444444446%" stop-color="#0055b9" stop-opacity="1"></stop><stop offset="85.55555555555554%" stop-color="#043f73" stop-opacity="1"></stop></linearGradient></defs><defs><linearGradient id="grad2_3" x1="0%" y1="100%" x2="56.3%" y2="0%"><stop offset="14.444444444444446%" stop-color="#202731" stop-opacity="1"></stop><stop offset="85.55555555555554%" stop-color="#043f73" stop-opacity="1"></stop></linearGradient></defs><g transform="translate(960, 540)"><path d="M-351 0C-345.5 -67.8 -340 -135.6 -304 -175.5C-267.9 -215.4 -201.3 -227.4 -145.5 -252C-89.7 -276.6 -44.9 -313.8 0 -351L0 0Z" fill="#1a3351"></path><path d="M-263.2 0C-259.1 -50.8 -255 -101.7 -228 -131.6C-200.9 -161.6 -150.9 -170.6 -109.1 -189C-67.3 -207.5 -33.7 -235.4 0 -263.2L0 0Z" fill="#004b96"></path><path d="M-175.5 0C-172.8 -33.9 -170 -67.8 -152 -87.8C-134 -107.7 -100.6 -113.7 -72.8 -126C-44.9 -138.3 -22.4 -156.9 0 -175.5L0 0Z" fill="#005edc"></path><path d="M-87.7 0C-86.4 -16.9 -85 -33.9 -76 -43.9C-67 -53.9 -50.3 -56.9 -36.4 -63C-22.4 -69.2 -11.2 -78.5 0 -87.7L0 0Z" fill="#0066ff"></path></g><g transform="translate(0, 0)"><path d="M351 0C335.1 57.1 319.1 114.3 291.9 168.5C264.6 222.7 226 274 175.5 304C125 333.9 62.5 342.5 0 351L0 0Z" fill="#1a3351"></path><path d="M263.3 0C251.3 42.9 239.3 85.7 218.9 126.4C198.4 167 169.5 205.5 131.6 228C93.7 250.4 46.9 256.8 0 263.3L0 0Z" fill="#004b96"></path><path d="M175.5 0C167.5 28.6 159.6 57.1 145.9 84.2C132.3 111.4 113 137 87.8 152C62.5 167 31.2 171.2 0 175.5L0 0Z" fill="#005edc"></path><path d="M87.8 0C83.8 14.3 79.8 28.6 73 42.1C66.1 55.7 56.5 68.5 43.9 76C31.2 83.5 15.6 85.6 0 87.8L0 0Z" fill="#0066ff"></path></g></svg>