<svg width="1010" height="1000" xmlns="http://www.w3.org/2000/svg"><defs><linearGradient x1="85.115%" y1="-11.417%" x2="12.425%" y2="105.676%" id="a"><stop stop-color="#DFECF4" offset="0%"/><stop stop-color="#D7E8F3" offset="30%"/><stop stop-color="#C1DEF1" offset="77%"/><stop stop-color="#B4D8F0" offset="100%"/></linearGradient><linearGradient x1="96.564%" y1="16.959%" x2="-36.578%" y2="109.524%" id="b"><stop stop-color="#F78E6B" offset="0%"/><stop stop-color="#F9AA8F" offset="100%"/></linearGradient><linearGradient x1="3.807%" y1="64.349%" x2="112.568%" y2="31.425%" id="c"><stop stop-color="#DFECF4" offset="0%"/><stop stop-color="#D7E8F3" offset="30%"/><stop stop-color="#C1DEF1" offset="77%"/><stop stop-color="#B4D8F0" offset="100%"/></linearGradient><linearGradient x1="64.096%" y1="3.049%" x2="26.807%" y2="121.091%" id="d"><stop stop-color="#DFECF4" offset="0%"/><stop stop-color="#D7E8F3" offset="30%"/><stop stop-color="#C1DEF1" offset="77%"/><stop stop-color="#B4D8F0" offset="100%"/></linearGradient></defs><g fill="none" fill-rule="evenodd"><path d="M5 0h1000v1000H5z"/><g fill-rule="nonzero"><g transform="translate(0 184)"><path d="m944.735 373.42-97.707 45.77 86.474-64a483.52 483.52 0 0 0-47.215-61.496L462.545 397.94l382.759-144.518a487.423 487.423 0 0 0-55.582-41.932L144.038 314.43c-68.556 84.852-105.927 190.253-105.98 298.9h971.93c-.04-84.26-22.549-167.019-65.253-239.911ZM736.877 181.774c-66.292-32.003-139.097-48.586-212.854-48.483-150.114 0-284.324 67.373-373.466 173.229 152.648-33.105 418.42-90.411 586.32-124.746Z" fill="#F2F2F2"/><ellipse fill="#1BAC7B" opacity=".4" cx="805.15" cy="249.544" rx="14.56" ry="14.411"/><ellipse fill="#1BAC7B" opacity=".4" cx="778.204" cy="256.426" rx="10.214" ry="10.109"/><ellipse fill="#1BAC7B" opacity=".4" cx="115.884" cy="287.732" rx="30.493" ry="30.182"/><ellipse fill="#1BAC7B" opacity=".4" cx="59.449" cy="302.147" rx="21.391" ry="21.172"/><path fill="#2F2E41" d="M0 648.292h995.362v1.932H0z"/><path d="m882.595 648.292-77.523-113.973s117.402 40.566 104.078 113.973h-26.555Z" fill="#3F3D56"/><path d="m885.637 648.292 77.522-113.973s-117.4 40.566-104.077 113.973h26.555Z" fill="#1BAC7B"/><path d="M202.976 128.24c0-6.275-9.04-11.362-20.192-11.362-.22 0-.439.005-.658.01-3.364-10.207-19.266-17.937-38.379-17.937-16.261 0-30.198 5.596-36.067 13.551a51.64 51.64 0 0 0-13.29-1.684c-17.099 0-30.96 7.8-30.96 17.422 0 8.74 11.439 15.976 26.351 17.229 10.837 1.961 27.763 3.223 46.787 3.223 32.297 0 55.93-6.098 56.522-10.682 5.918-1.98 9.886-5.614 9.886-9.77ZM690.899 133.07c0-6.276-9.04-11.363-20.192-11.363-.22 0-.439.006-.658.01-3.364-10.207-19.266-17.937-38.379-17.937-16.261 0-30.198 5.596-36.067 13.552a51.64 51.64 0 0 0-13.29-1.684c-17.099 0-30.96 7.8-30.96 17.422 0 8.74 11.438 15.976 26.35 17.228 10.837 1.961 27.764 3.223 46.788 3.223 32.297 0 55.93-6.098 56.522-10.681 5.918-1.981 9.886-5.614 9.886-9.77ZM963.16 51.41c0-11.015-15.868-19.944-35.442-19.944-.387 0-.77.01-1.155.017C920.66 13.567 892.746 0 859.2 0c-28.543 0-53.006 9.822-63.307 23.786a90.64 90.64 0 0 0-23.327-2.956c-30.013 0-54.343 13.69-54.343 30.58 0 15.341 20.078 28.042 46.253 30.24 19.02 3.443 48.731 5.658 82.123 5.658 56.69 0 98.17-10.704 99.21-18.75 10.388-3.476 17.351-9.853 17.351-17.148Z" fill="#F2F2F2"/><path d="m51.36 647.345-1.952-.038a443.597 443.597 0 0 1 6.928-64.025c8.44-45.281 22.473-75.02 41.71-88.389l1.121 1.581c-44.939 31.23-47.785 149.678-47.807 150.87ZM75.756 646.883l-1.952-.038c.042-2.14 1.262-52.557 21.315-66.493l1.12 1.581c-19.243 13.373-20.474 64.436-20.483 64.95Z" fill="#2F2E41"/><ellipse fill="#1BAC7B" cx="110.271" cy="486.991" rx="9.758" ry="9.659"/><ellipse fill="#1BAC7B" cx="105.438" cy="570.056" rx="9.758" ry="9.659"/><path d="M71.207 502.44c1.834 11.594-2.946 21.964-2.946 21.964s-7.753-8.428-9.587-20.022c-1.834-11.595 2.946-21.965 2.946-21.965s7.753 8.428 9.587 20.022ZM103.105 530.598c-11.216 3.808-22.365.956-22.365.956s7.033-9.025 18.249-12.833c11.215-3.807 22.365-.956 22.365-.956s-7.034 9.026-18.25 12.833ZM103.465 604.16a30.683 30.683 0 0 1-15.676.67c6.737-8.49 17.883-12.274 28.467-9.664a30.379 30.379 0 0 1-12.791 8.995Z" fill="#2F2E41"/></g><g transform="translate(283 302)"><path d="M55.854 98.157 95.955 141.9a5.59 5.59 0 0 1 0 7.559L71.83 175.736l-34.808-41.597 15.604-35.455a1.956 1.956 0 0 1 3.228-.527Z" fill="#DFECF4"/><path d="M55.854 98.157 95.955 141.9a5.59 5.59 0 0 1 0 7.559L71.83 175.736l-34.808-41.597 15.604-35.455a1.956 1.956 0 0 1 3.228-.527Z" fill="url(#a)"/><path d="M166.442 105.852s-7.728 111.95-93.566 37.847l-5.652 6.439s51.928 80.71 119.615 13.07c67.687-67.64-9.528-57.464-20.397-57.356Z" fill="#50C2B7"/><path d="M167.305 89.799s-7.715 10.49-8.302 19.27c-.586 8.78-1.172 8.732-1.172 8.732l10.717-7.07" fill="#12766C"/><path d="m113.015 27.225 5.824 26.53c1.386.367 2.888.687 4.507.958a72.006 72.006 0 0 0 2.55 7.543c4.7 11.876 16.01 32.17 34.8 17.527 14.295 16.762-3.057 48.429-3.057 48.429 35.042 24.986 46.957-51.087 46.957-51.087-3.625-3.364-6.755-6.201-9.438-8.512l-.145-.12a221.465 221.465 0 0 0-6.803-5.603c-5.788-5.136-12.869-12.463-12.724-17.48.895-32.397-15.853-27.404-41.518-33.319-11.6-2.67-4.52 5.771-17.28 13.266a35.238 35.238 0 0 1-3.673 1.868Z" fill="#F9AA8F"/><path d="M202.647 75.617a288.947 288.947 0 0 0-7.446-6.714l-.145-.12a221.925 221.925 0 0 0-6.805-5.652c-5.79-5.18-12.872-12.57-12.727-17.63a66.91 66.91 0 0 0-.314-9.287l-.907-.881-56.809-9.262-3.505 5.506 4.835 22.352a49.38 49.38 0 0 0 4.508.966c.71 2.581 1.562 5.12 2.55 7.608l.484 1.208a25.81 25.81 0 0 1 2.575-4.686c.906-.905 3.783 8.755 4.69 9.66.906.907-1.935 5.193-1.935 5.23l.06.096c.255.375 1.403 1.993 1.91 2.705l.206.266c.363.398 3.928-5.205 3.155-9.009-.774-3.803-5.887-13.838 4.073-15.541 9.96-1.703 10.407 22.799 8.461 28.209-1.716 4.71 2.889 4.094 5.403 3.128l.689-.302h.072l.278-.145c2.14-1.208 11.29-7.801 15.157-8.695 3.868-.893 6.407 2.319 1.21 9.866-5.198 7.547 26.59 2.959 26.59 2.959l3.687-11.835Z" fill="url(#b)"/><path d="M143.193 252.016s-18.968 64.543 112.553 259.741h5.357s-59.852-200.44-41.21-230.294l-76.7-29.447Z" fill="#093276"/><path d="M132.035 278.668s-7.195 17.483 3.035 18.682c10.23 1.2 14.967-20.229 14.967-20.229" fill="#08685E"/><path fill="#0C0B26" d="m135.441 266.758-2.941 12.085 13.838 3.106 1.75-25.105"/><path d="M232.706 270.182c-5.471 18.89-15.106 36.21-30.636 50.038-9.211 8.192-19.27 21.146-30.26 36.438-32.791 45.649-73.716 114.086-124.288 156.065h-9.526S147.13 374.06 153.834 153.793c0 0 29.39-44.162 55.111-61.097 0-.012 45.779 101.348 23.761 177.486Z" fill="#0D439B"/><path d="M160.082 300.713c7.249 1.7 46.765-.595 66.71-6.337 3.407-.986 1.764-15.323 1.764-15.323l-71.276 2.865s-2.03 17.665 2.802 18.795Z" fill="#08685E"/><path d="M171.992 274.185s-22.7 3.422-39.4-6.915c-3.942-2.49-5.803-7.213-4.602-11.682 6.765-25.752 28.541-115.963 30.023-140.274a5.43 5.43 0 0 1 2.72-4.395c8.332-4.802 33.668-20.253 37.785-33.772 4.955-16.231-6.96 200.94-6.96 200.94l-19.566-3.902Z" fill="#E3EDED"/><path d="m171.398 273.57 8.116 1.62 12.416-27.904-19.438-46.226.34-98.709c-5.175 3.53-9.89 6.34-12.683 7.949a5.473 5.473 0 0 0-1.082.816l-.218.24-.122.133a5.414 5.414 0 0 0-.935 1.56c-.183 1.585 0 4.731 1.336 10.987 2.892 13.592 4.094 56.432-6.354 67.466-5.151 5.415-10.63 13.784-14.87 20.892l-.097.385-.547 2.28-.17.721-.693 2.882-.121.516-.607 2.51-.11.456-.668 2.761v.06c-.972 4.01-1.895 7.817-2.77 11.347 0 0 25.646 2.57 18.843 20.184-5.333 13.807-15.332 11.502-19.438 9.857l.45.3c1.044.649 2.113 1.201 3.194 1.777 16.268 8.141 36.228 5.14 36.228 5.14Z" fill="#D5EBEB"/><path d="M200.833 73.384c43.904 31.997 59.569 158.27 28.25 204.713l-71.252 2.887 5.125-163.888a5.366 5.366 0 0 1 1.384-3.438l36.493-40.274Z" fill="#23A295"/><path d="M187.35 123.135c-24.618 24.637-10.882 125.498-123.103 46.807l-12.611 4.036s122.124 136.29 169.873-24.577c4.014-13.474-11.814-48.627-34.159-26.266Z" fill="#50C2B7"/><path d="M72.096 175.858a67.91 67.91 0 0 1-17.347.514c-2.071-.257-4.322-.49-6.202-.588-4.992-.27-12.666-10.186-12.666-10.186s-5.89-10.897-4.49-11.105" fill="#F9AA8F"/><path d="M200.699 73.513s-3.811-14.672-17.728-1.189c-30.268 29.404-13.988 32.911-19.295 41.614L200.7 73.513Z" fill="#23A295"/><ellipse fill="#08685E" transform="rotate(-8.58 168.651 236.533)" cx="168.651" cy="236.533" rx="3.107" ry="3.083"/><ellipse fill="#08685E" transform="rotate(-8.58 169.507 272.194)" cx="169.507" cy="272.194" rx="3.107" ry="3.083"/><ellipse fill="#08685E" transform="rotate(-8.58 169.505 255.126)" cx="169.505" cy="255.126" rx="3.107" ry="3.083"/><path d="m30.756 130.27 41.34 45.466L45.346 171a2.245 2.245 0 0 1-1.202-.59L.689 128.436a2.258 2.258 0 0 1-.431-2.671 2.245 2.245 0 0 1 2.438-1.16l28.06 5.663Z" fill="#DFECF4"/><path d="m30.756 130.27 41.34 45.466L45.346 171a2.245 2.245 0 0 1-1.202-.59L.689 128.436a2.258 2.258 0 0 1-.431-2.671 2.245 2.245 0 0 1 2.438-1.16l28.06 5.663Z" fill="url(#c)"/><path d="m33.48 102.826 42.513 44.586-3.777 28.324-42.988-45.77 1.571-26.174a1.547 1.547 0 0 1 1.023-1.347 1.57 1.57 0 0 1 1.657.381Z" fill="#DFECF4"/><path d="m33.48 102.826 42.513 44.586-3.777 28.324-42.988-45.77 1.571-26.174a1.547 1.547 0 0 1 1.023-1.347 1.57 1.57 0 0 1 1.657.381Z" fill="url(#d)"/><path d="M78.915 148.469s-3.51-10.779-14.475-11.35c-1.755-.095-2.153.845-2.079 1.903.13 1.385 1.07 2.58 2.427 3.082 2.104.797 5.85 3.569 7.356 13.55.86 5.675 6.771 8.495 6.771 8.495v-15.68Z" fill="#F9AA8F"/><path d="m47.739 511.757-2.437 10.153c-1.592 6.505-7.494 11.088-14.28 11.09H9.626c-10.637 0 28.524-21.243 28.524-21.243h9.589ZM260.89 511.757l3.507 9.06a8.916 8.916 0 0 1-1.003 8.326A9.035 9.035 0 0 1 255.9 533c-8.35 0-19.02-.109-26.994-.109-10.596 0 26.497-21.134 26.497-21.134h5.486Z" fill="#0C0B26"/><path d="M191.873 64.853c-18.841-23.856 11.118-23.856-9.578-43.377-20.696-19.522-13.416-27.537-41.006-16.437-28.95 11.653-46.399 28.267-31.755 42.875 14.644 14.608 14.15 16.939 14.15 16.939s7.075-4.085 3.718-19.222c-3.285-14.752 21.31-12.77 22.453 7.761.047.92.692 1.7 1.588 1.922h.06a2.12 2.12 0 0 0 2.611-1.634c1.312-6.595 5.728-24.603 11.708-5.766 5.752 18.212 41.813 23.582 26.05 16.939Z" fill="#0D439B"/></g></g></g></svg>