<?xml version="1.0" encoding="UTF-8"?>
<svg width="1010px" height="1000px" viewBox="0 0 1010 1000" version="1.1" xmlns="http://www.w3.org/2000/svg" xmlns:xlink="http://www.w3.org/1999/xlink">
    <!-- Generator: Sketch 54.1 (76490) - https://sketchapp.com -->
    <title>编组 39</title>
    <desc>Created with Sketch.</desc>
    <defs>
        <linearGradient x1="85.1146231%" y1="-11.4168645%" x2="12.4249853%" y2="105.675925%" id="linearGradient-1">
            <stop stop-color="#DFECF4" offset="0%"></stop>
            <stop stop-color="#D7E8F3" offset="30%"></stop>
            <stop stop-color="#C1DEF1" offset="77%"></stop>
            <stop stop-color="#B4D8F0" offset="100%"></stop>
        </linearGradient>
        <linearGradient x1="96.5644172%" y1="16.9588054%" x2="-36.5780504%" y2="109.524373%" id="linearGradient-2">
            <stop stop-color="#F78E6B" offset="0%"></stop>
            <stop stop-color="#F9AA8F" offset="100%"></stop>
        </linearGradient>
        <linearGradient x1="3.80653828%" y1="64.3488648%" x2="112.56799%" y2="31.4248011%" id="linearGradient-3">
            <stop stop-color="#DFECF4" offset="0%"></stop>
            <stop stop-color="#D7E8F3" offset="30%"></stop>
            <stop stop-color="#C1DEF1" offset="77%"></stop>
            <stop stop-color="#B4D8F0" offset="100%"></stop>
        </linearGradient>
        <linearGradient x1="64.0955515%" y1="3.04880467%" x2="26.8071319%" y2="121.091368%" id="linearGradient-4">
            <stop stop-color="#DFECF4" offset="0%"></stop>
            <stop stop-color="#D7E8F3" offset="30%"></stop>
            <stop stop-color="#C1DEF1" offset="77%"></stop>
            <stop stop-color="#B4D8F0" offset="100%"></stop>
        </linearGradient>
    </defs>
    <g id="上传" stroke="none" stroke-width="1" fill="none" fill-rule="evenodd">
        <g id="画板" transform="translate(-7169.000000, -3725.000000)">
            <g id="编组-39" transform="translate(7169.000000, 3725.000000)">
                <rect id="矩形复制-33" x="5" y="0" width="1000" height="1000"></rect>
                <g id="编组-260" transform="translate(0.000000, 184.000000)" fill-rule="nonzero">
                    <g id="编组-213复制">
                        <path d="M944.734503,373.419924 L847.02762,419.190411 L933.502454,355.189673 C919.447895,333.476399 903.659038,312.912063 886.287296,293.693876 L462.544528,397.941152 L845.303691,253.42347 C827.812928,238.148826 809.238006,224.13532 789.72184,211.490773 L144.037613,314.431017 C75.4823006,399.283224 38.1107487,504.684313 38.057971,613.33136 L1009.98761,613.33136 C1009.94824,529.070348 987.439049,446.312416 944.734503,373.419924 Z" id="路径" fill="#F2F2F2"></path>
                        <path d="M736.877283,181.773772 C670.584978,149.770982 597.779756,133.18793 524.022789,133.291301 C373.908831,133.291301 239.699114,200.663706 150.55667,306.519783 C303.204645,273.414917 568.976952,216.108507 736.877283,181.773772 Z" id="路径" fill="#F2F2F2"></path>
                        <ellipse id="椭圆形" fill="#1BAC7B" opacity="0.4" cx="805.150366" cy="249.54359" rx="14.5597794" ry="14.4110247"></ellipse>
                        <ellipse id="椭圆形" fill="#1BAC7B" opacity="0.4" cx="778.203917" cy="256.426466" rx="10.2135786" ry="10.1092283"></ellipse>
                        <ellipse id="椭圆形" fill="#1BAC7B" opacity="0.4" cx="115.883692" cy="287.732187" rx="30.4931198" ry="30.181577"></ellipse>
                        <ellipse id="椭圆形" fill="#1BAC7B" opacity="0.4" cx="59.4486683" cy="302.147268" rx="21.3906973" ry="21.1721523"></ellipse>
                        <rect id="矩形" fill="#2F2E41" x="0" y="648.29184" width="995.362319" height="1.93175074"></rect>
                        <path d="M882.59454,648.29184 L805.072464,534.318546 C805.072464,534.318546 922.473585,574.885312 909.149831,648.29184 L882.59454,648.29184 Z" id="路径" fill="#3F3D56"></path>
                        <path d="M885.637344,648.29184 L963.15942,534.318546 C963.15942,534.318546 845.758299,574.885312 859.082053,648.29184 L885.637344,648.29184 Z" id="路径" fill="#1BAC7B"></path>
                        <path d="M202.975845,128.240133 C202.975845,121.964976 193.935809,116.877971 182.784316,116.877971 C182.563609,116.877971 182.345254,116.88336 182.126245,116.88732 C178.762252,106.680597 162.859973,98.9510148 143.747367,98.9510148 C127.485996,98.9510148 113.548991,104.546698 107.68012,112.502381 C103.343969,111.366555 98.8756904,110.800291 94.3902965,110.818165 C77.2913576,110.818146 63.4299517,118.618275 63.4299517,128.240133 C63.4299517,136.980513 74.8686652,144.216252 89.7812225,145.468944 C100.617634,147.430029 117.544356,148.69207 136.568131,148.69207 C168.865403,148.69207 192.497637,142.594093 193.090336,138.010455 C199.00836,136.029415 202.975845,132.396227 202.975845,128.240133 Z" id="路径" fill="#F2F2F2"></path>
                        <path d="M690.898551,133.069509 C690.898551,126.794352 681.858514,121.707348 670.707021,121.707348 C670.486314,121.707348 670.267959,121.712737 670.04895,121.716697 C666.684957,111.509974 650.782678,103.780392 631.670072,103.780392 C615.408701,103.780392 601.471697,109.376075 595.602826,117.331758 C591.266674,116.195932 586.798396,115.629668 582.313002,115.647542 C565.214063,115.647523 551.352657,123.447652 551.352657,133.069509 C551.352657,141.80989 562.791371,149.045629 577.703928,150.298321 C588.54034,152.259405 605.467062,153.521447 624.490836,153.521447 C656.788109,153.521447 680.420342,147.42347 681.013042,142.839831 C686.931066,140.858792 690.898551,137.225604 690.898551,133.069509 Z" id="路径" fill="#F2F2F2"></path>
                        <path d="M963.15942,51.4096149 C963.15942,40.3951778 947.29194,31.4662202 927.718345,31.4662202 C927.330934,31.4662202 926.94769,31.4756858 926.563275,31.4826401 C920.65864,13.5673326 892.746241,1.42108547e-14 859.19894,1.42108547e-14 C830.656252,1.42108547e-14 806.193408,9.82177415 795.8921,23.785956 C788.281089,21.7923079 780.438165,20.7983781 772.565199,20.8297495 C742.55239,20.8297495 718.222222,34.5208107 718.222222,51.4095956 C718.222222,66.751106 738.299968,79.4515944 764.475158,81.6503711 C783.495702,85.0925577 813.206252,87.307677 846.597662,87.307677 C903.287284,87.307677 944.767633,76.6042325 945.807962,68.558848 C956.195514,65.0817353 963.15942,58.7045818 963.15942,51.4096149 Z" id="路径" fill="#F2F2F2"></path>
                        <path d="M51.3595832,647.344828 L49.4078924,647.307101 C50.1627358,625.828553 52.4780886,604.431605 56.3360142,583.282014 C64.7755547,538.000946 78.8090509,508.262551 98.0467307,494.893098 L99.1674306,496.473965 C54.228032,527.70456 51.382457,646.151634 51.3595832,647.344828 Z" id="路径" fill="#2F2E41"></path>
                        <path d="M75.7557185,646.882647 L73.8040276,646.84491 C73.845989,644.705651 75.0657957,594.28771 95.1191945,580.352321 L96.2398944,581.933188 C76.9955398,595.306409 75.7652525,646.368579 75.7557185,646.882647 Z" id="路径" fill="#2F2E41"></path>
                        <ellipse id="椭圆形" fill="#1BAC7B" cx="110.270531" cy="486.990653" rx="9.75845411" ry="9.65875371"></ellipse>
                        <ellipse id="椭圆形" fill="#1BAC7B" cx="105.437999" cy="570.055935" rx="9.75845411" ry="9.65875371"></ellipse>
                        <path d="M71.2070786,502.439453 C73.0410336,514.033821 68.2610891,524.404067 68.2610891,524.404067 C68.2610891,524.404067 60.5077143,515.976022 58.6737592,504.381625 C56.8398042,492.787229 61.6197389,482.417011 61.6197389,482.417011 C61.6197389,482.417011 69.3731137,490.845046 71.2070786,502.439453 Z" id="路径" fill="#2F2E41"></path>
                        <path d="M103.104703,530.598342 C91.8893121,534.406016 80.7395171,531.554192 80.7395171,531.554192 C80.7395171,531.554192 87.7733425,522.528917 98.988685,518.721243 C110.204028,514.913569 121.353881,517.765393 121.353881,517.765393 C121.353881,517.765393 114.320046,526.790668 103.104703,530.598342 Z" id="路径" fill="#2F2E41"></path>
                        <path d="M103.465034,604.160511 C98.389047,605.738568 92.9833738,605.969599 87.7888487,604.830491 C94.5263077,596.340192 105.672098,592.556131 116.256211,595.165652 C112.861754,599.220769 108.450928,602.322497 103.465034,604.160511 L103.465034,604.160511 Z" id="路径" fill="#2F2E41"></path>
                    </g>
                    <g id="man-reading-guide复制" transform="translate(283.000000, 118.000000)">
                        <path d="M55.8542184,98.1565856 L95.9550756,141.901211 C97.9169356,144.039185 97.9169356,147.321963 95.9550756,149.459937 L71.8297469,175.735507 L37.0220588,134.13852 L52.6255052,98.6844966 C52.8934161,98.0823693 53.4466787,97.655607 54.0972869,97.5492293 C54.747895,97.4428515 55.4083493,97.671165 55.8542184,98.1565856 Z" id="路径" fill="#DFECF4"></path>
                        <path d="M55.8542184,98.1565856 L95.9550756,141.901211 C97.9169356,144.039185 97.9169356,147.321963 95.9550756,149.459937 L71.8297469,175.735507 L37.0220588,134.13852 L52.6255052,98.6844966 C52.8934161,98.0823693 53.4466787,97.655607 54.0972869,97.5492293 C54.747895,97.4428515 55.4083493,97.671165 55.8542184,98.1565856 Z" id="路径" fill="url(#linearGradient-1)"></path>
                        <path d="M166.44245,105.852114 C166.44245,105.852114 158.713672,217.802072 72.8759335,143.699278 L67.2242647,150.137757 C67.2242647,150.137757 119.151991,230.84783 186.839177,163.207629 C254.526364,95.5674276 177.311043,105.7436 166.44245,105.852114 Z" id="路径" fill="#50C2B7"></path>
                        <path d="M167.304914,89.798913 C167.304914,89.798913 159.589675,100.289053 159.003411,109.068975 C158.417147,117.848897 157.830882,117.800725 157.830882,117.800725 L168.547794,110.731018" id="路径" fill="#12766C"></path>
                        <path d="M113.014706,27.224514 L118.838955,53.7553446 C120.22453,54.1224981 121.726913,54.441762 123.346102,54.7131363 C124.055966,57.2716918 124.907121,59.7896871 125.895722,62.2557461 C130.596205,74.1323634 141.906366,94.4255755 160.696216,79.7833346 C174.991002,96.5446897 157.639089,128.211678 157.639089,128.211678 C192.681253,153.19807 204.595588,77.1254625 204.595588,77.1254625 C200.970537,73.7612191 197.840909,70.9237612 195.158371,68.6130886 L195.013369,68.4933647 L195.013369,68.4933647 C192.01666,65.9312718 189.684543,64.0516056 188.210356,62.8902831 C182.422357,57.754125 175.341423,50.4270184 175.486425,45.4105842 C176.380605,13.0132793 159.632867,18.0057687 133.967503,12.0914048 C122.367339,9.42156037 129.448272,17.8620999 116.688091,25.3568201 C115.501662,26.0502323 114.27508,26.6738747 113.014706,27.224514 L113.014706,27.224514 Z" id="路径" fill="#F9AA8F"></path>
                        <path d="M202.647059,75.617381 C199.879138,73.0331744 197.365043,70.7870882 195.201472,68.903274 L195.056428,68.7825167 L195.056428,68.7825167 C192.058854,66.19831 189.726064,64.30242 188.251451,63.131074 C182.461782,57.950585 175.378804,50.5602369 175.523848,45.5005051 C175.634405,42.4015566 175.529399,39.2986784 175.209586,36.2142671 L174.303062,35.3327387 L117.494198,26.0706522 L113.988971,31.577186 L118.823767,53.9293662 C120.209743,54.2996886 121.712559,54.6217081 123.332216,54.8954247 C124.042237,57.4760777 124.893639,60.0158088 125.882571,62.503136 L126.366051,63.7107092 C127.059664,62.0641322 127.922463,60.4939251 128.94058,59.0253251 C129.847104,58.1196452 132.723809,67.7802309 133.630333,68.6859108 C134.536857,69.5915907 131.696414,73.8784756 131.696414,73.9147028 L131.756849,74.0113087 C132.010676,74.3856564 133.15894,76.0038045 133.666594,76.7162727 L133.872073,76.9819388 C134.234683,77.3804379 137.800345,71.7772982 137.026778,67.9734426 C136.25321,64.169587 131.140413,54.1346536 141.100094,52.4319754 C151.059776,50.7292971 151.506995,75.2309576 149.560989,80.6408856 C147.844636,85.3504211 152.44978,84.7345588 154.963874,83.7685002 L155.652833,83.4666069 L155.725355,83.4666069 L156.003356,83.3216981 C158.142753,82.1141249 167.292606,75.5207752 171.160444,74.627171 C175.028282,73.7335668 177.56655,76.9457116 172.369143,84.4930441 C167.171737,92.0403767 198.960526,87.4515985 198.960526,87.4515985 L202.647059,75.617381 Z" id="路径" fill="url(#linearGradient-2)"></path>
                        <path d="M143.193366,252.016304 C143.193366,252.016304 124.224566,316.55872 255.745619,511.757246 L261.102941,511.757246 C261.102941,511.757246 201.251226,311.317123 219.892769,281.462807 L143.193366,252.016304 Z" id="路径" fill="#093276"></path>
                        <path d="M132.035463,278.668204 C132.035463,278.668204 124.839837,296.150948 135.070353,297.350039 C145.300868,298.54913 150.036765,277.121377 150.036765,277.121377" id="路径" fill="#08685E"></path>
                        <polyline id="路径" fill="#0C0B26" points="135.441401 266.757612 132.5 278.842993 146.337685 281.949275 148.088235 256.844203"></polyline>
                        <path d="M232.706018,270.181721 C227.234877,289.072149 217.599857,306.391373 202.070047,320.220366 C192.858678,328.412216 182.800008,341.365652 171.809308,356.657904 C139.018772,402.306773 98.0941498,470.744097 47.5224039,512.722826 L37.9963235,512.722826 C37.9963235,512.722826 147.12865,374.061085 153.83443,153.792695 C153.83443,153.792695 183.223659,109.631071 208.945286,92.6956522 C208.945286,92.6836583 254.723731,194.044299 232.706018,270.181721 Z" id="路径" fill="#0D439B"></path>
                        <path d="M160.082343,300.712843 C167.330806,302.412856 206.847008,300.118433 226.792362,294.376431 C230.199139,293.38971 228.556154,279.052536 228.556154,279.052536 L157.279604,281.917593 C157.279604,281.917593 155.250035,299.583464 160.082343,300.712843 Z" id="路径" fill="#08685E"></path>
                        <path d="M171.992441,274.185101 C171.992441,274.185101 149.292609,277.606728 132.592626,267.269811 C128.650232,264.780911 126.788924,260.057383 127.989504,255.588254 C134.754515,229.836005 156.531293,139.625094 158.013037,115.313529 C158.116083,113.490225 159.137968,111.839748 160.733616,110.919439 C169.065389,106.117155 194.400782,90.6658048 198.518087,77.1473744 C203.473427,60.9156534 191.558748,278.086957 191.558748,278.086957 L171.992441,274.185101 Z" id="路径" fill="#E3EDED"></path>
                        <path d="M171.398479,273.569291 L179.513955,275.190217 L191.930147,247.286272 L172.491881,201.059856 L172.832051,102.351449 C167.656612,105.881466 162.942833,108.691072 160.148582,110.299991 C159.755237,110.526687 159.392019,110.800957 159.067329,111.116458 L158.848648,111.356595 L158.727159,111.488671 C158.328932,111.95341 158.012692,112.481078 157.791692,113.049563 C157.609459,114.634468 157.791692,117.780266 159.128073,124.035841 C162.019515,137.627608 163.222258,180.468089 152.77419,191.502394 C147.623049,196.917489 142.143888,205.286271 137.903916,212.394333 L137.806725,212.778552 L137.260024,215.059856 L137.089939,215.780268 L136.397451,218.661914 L136.275962,219.17821 L135.668516,221.687644 L135.559176,222.143904 L134.890985,224.905482 L134.890985,224.965517 C133.919072,228.975808 132.995754,232.781983 132.121032,236.312001 C132.121032,236.312001 157.767394,238.881469 150.964001,256.495534 C145.630627,270.303425 135.632069,267.998107 131.525735,266.353167 L131.975245,266.653339 C133.020052,267.30171 134.089157,267.854025 135.17041,268.430354 C151.437809,276.571006 171.398479,273.569291 171.398479,273.569291 Z" id="路径" fill="#D5EBEB"></path>
                        <path d="M200.832517,73.384058 C244.736537,105.380517 260.401934,231.653326 229.083172,278.096707 L157.830882,280.983696 L162.956427,117.09618 C162.994299,115.823218 163.484606,114.60493 164.340083,113.658148 L200.832517,73.384058 Z" id="路径" fill="#23A295"></path>
                        <path d="M187.35036,123.135131 C162.732186,147.772289 176.468063,248.632529 64.2474021,169.942139 L51.6360294,173.978465 C51.6360294,173.978465 173.75958,310.267345 221.50868,149.401192 C225.523038,135.92681 209.695342,100.773645 187.35036,123.135131 Z" id="路径" fill="#50C2B7"></path>
                        <path d="M72.0955882,175.857726 L72.0955882,175.857726 C66.3570408,176.770373 60.5292071,176.943132 54.7486052,176.371955 C52.6775023,176.114841 50.426824,175.882214 48.5472682,175.784265 C43.5550723,175.514907 35.8812171,165.597642 35.8812171,165.597642 C35.8812171,165.597642 29.9911442,154.700894 31.3918323,154.492754" id="路径" fill="#F9AA8F"></path>
                        <path d="M200.698529,73.5130052 C200.698529,73.5130052 196.88779,58.8409628 182.971355,72.3240229 C152.702505,101.727557 168.982564,105.235055 163.676471,113.938406 L200.698529,73.5130052 Z" id="路径" fill="#23A295"></path>
                        <ellipse id="椭圆形" fill="#08685E" transform="translate(168.651121, 236.532574) rotate(-8.580000) translate(-168.651121, -236.532574) " cx="168.651121" cy="236.532574" rx="3.10651736" ry="3.08300085"></ellipse>
                        <ellipse id="椭圆形" fill="#08685E" transform="translate(169.506579, 272.194064) rotate(-8.580000) translate(-169.506579, -272.194064) " cx="169.506579" cy="272.194064" rx="3.10651736" ry="3.08300085"></ellipse>
                        <ellipse id="椭圆形" fill="#08685E" transform="translate(169.504785, 255.125614) rotate(-8.580000) translate(-169.504785, -255.125614) " cx="169.504785" cy="255.125614" rx="3.10651736" ry="3.08300085"></ellipse>
                        <path d="M30.7564316,130.269101 L72.0955882,175.735507 L45.3453084,170.999674 C44.894231,170.929795 44.4750673,170.723836 44.1435887,170.409201 L0.689405534,128.43743 C-0.0312261757,127.742325 -0.207165332,126.653373 0.257735047,125.765663 C0.722635427,124.877953 1.7165303,124.405048 2.69627738,124.605382 L30.7564316,130.269101 Z" id="路径" fill="#DFECF4"></path>
                        <path d="M30.7564316,130.269101 L72.0955882,175.735507 L45.3453084,170.999674 C44.894231,170.929795 44.4750673,170.723836 44.1435887,170.409201 L0.689405534,128.43743 C-0.0312261757,127.742325 -0.207165332,126.653373 0.257735047,125.765663 C0.722635427,124.877953 1.7165303,124.405048 2.69627738,124.605382 L30.7564316,130.269101 Z" id="路径" fill="url(#linearGradient-3)"></path>
                        <path d="M33.4792781,102.826115 L75.9926471,147.412037 L72.2163879,175.735507 L29.2279412,129.966422 L30.7993522,103.791962 C30.8412356,103.181811 31.2422285,102.653537 31.8221299,102.44454 C32.4020314,102.235543 33.0517372,102.385144 33.4792781,102.826115 Z" id="路径" fill="#DFECF4"></path>
                        <path d="M33.4792781,102.826115 L75.9926471,147.412037 L72.2163879,175.735507 L29.2279412,129.966422 L30.7993522,103.791962 C30.8412356,103.181811 31.2422285,102.653537 31.8221299,102.44454 C32.4020314,102.235543 33.0517372,102.385144 33.4792781,102.826115 Z" id="路径" fill="url(#linearGradient-4)"></path>
                        <path d="M78.9154412,148.468541 C78.9154412,148.468541 75.4054849,137.690022 64.4399832,137.118974 C62.685005,137.0238 62.2867121,137.963649 62.3613921,139.022466 C62.490825,140.40742 63.4317749,141.601985 64.7884895,142.103742 C66.8919739,142.900829 70.6384166,145.672788 72.1444617,155.654221 C73.0032808,161.329004 78.9154412,164.148551 78.9154412,164.148551 L78.9154412,148.468541 Z" id="路径" fill="#F9AA8F"></path>
                        <path d="M47.7389706,511.757246 L45.3020751,521.910033 C43.7097193,528.414678 37.8076676,532.998194 31.0218678,533 L9.62592572,533 C-1.01112292,533 38.149787,511.757246 38.149787,511.757246 L47.7389706,511.757246 Z" id="路径" fill="#0C0B26"></path>
                        <path d="M260.889675,511.757246 L264.39741,520.816325 C265.47061,523.585775 265.094812,526.703622 263.393808,529.142802 C261.692805,531.581981 258.887187,533.026174 255.901167,532.999641 C247.550574,532.999641 236.88172,532.891076 228.90739,532.891076 C218.311361,532.891076 255.40353,511.757246 255.40353,511.757246 L260.889675,511.757246 Z" id="路径" fill="#0C0B26"></path>
                        <path d="M191.872593,64.8525493 C173.031604,40.9969536 202.990658,40.9969536 182.294693,21.4755164 C161.598728,1.95407909 168.879168,-6.06132402 141.288559,5.03886554 C112.338272,16.6916619 94.8903374,33.3059067 109.533936,47.9139484 C124.177535,62.52199 123.684201,64.8525493 123.684201,64.8525493 C123.684201,64.8525493 130.759333,60.768064 127.402255,45.6314419 C124.117372,30.8792419 148.711879,32.8614186 149.854971,53.391964 C149.902236,54.3121329 150.547392,55.0928823 151.443266,55.3140747 L151.503428,55.3140747 C152.067802,55.4608929 152.667839,55.368836 153.162022,55.0596156 C153.656205,54.7503952 154.000784,54.2513866 154.114489,53.6802806 C155.426036,47.0850381 159.841977,29.0772631 165.822148,47.9139484 C171.573702,66.1259477 207.635218,71.4958446 191.872593,64.8525493 Z" id="路径" fill="#0D439B"></path>
                    </g>
                </g>
            </g>
        </g>
    </g>
</svg>