<svg id="visual" viewBox="0 0 960 540" width="960" height="540" xmlns="http://www.w3.org/2000/svg" xmlns:xlink="http://www.w3.org/1999/xlink" version="1.1"><rect x="0" y="0" width="960" height="540" fill="#182E4C"></rect><path d="M0 466L64 466L64 451L128 451L128 450L192 450L192 461L256 461L256 456L320 456L320 462L384 462L384 444L448 444L448 475L512 475L512 461L576 461L576 456L640 456L640 455L704 455L704 457L768 457L768 452L832 452L832 451L896 451L896 455L960 455L960 454L960 541L960 541L896 541L896 541L832 541L832 541L768 541L768 541L704 541L704 541L640 541L640 541L576 541L576 541L512 541L512 541L448 541L448 541L384 541L384 541L320 541L320 541L256 541L256 541L192 541L192 541L128 541L128 541L64 541L64 541L0 541Z" fill="#6c63ff"></path><path d="M0 463L64 463L64 464L128 464L128 471L192 471L192 463L256 463L256 489L320 489L320 466L384 466L384 478L448 478L448 473L512 473L512 476L576 476L576 485L640 485L640 494L704 494L704 485L768 485L768 473L832 473L832 491L896 491L896 494L960 494L960 479L960 541L960 541L896 541L896 541L832 541L832 541L768 541L768 541L704 541L704 541L640 541L640 541L576 541L576 541L512 541L512 541L448 541L448 541L384 541L384 541L320 541L320 541L256 541L256 541L192 541L192 541L128 541L128 541L64 541L64 541L0 541Z" fill="#5262f4"></path><path d="M0 484L64 484L64 500L128 500L128 505L192 505L192 493L256 493L256 506L320 506L320 487L384 487L384 499L448 499L448 508L512 508L512 509L576 509L576 510L640 510L640 490L704 490L704 505L768 505L768 501L832 501L832 492L896 492L896 494L960 494L960 485L960 541L960 541L896 541L896 541L832 541L832 541L768 541L768 541L704 541L704 541L640 541L640 541L576 541L576 541L512 541L512 541L448 541L448 541L384 541L384 541L320 541L320 541L256 541L256 541L192 541L192 541L128 541L128 541L64 541L64 541L0 541Z" fill="#3560e8"></path><path d="M0 525L64 525L64 510L128 510L128 502L192 502L192 524L256 524L256 513L320 513L320 529L384 529L384 517L448 517L448 523L512 523L512 513L576 513L576 504L640 504L640 527L704 527L704 509L768 509L768 524L832 524L832 514L896 514L896 512L960 512L960 530L960 541L960 541L896 541L896 541L832 541L832 541L768 541L768 541L704 541L704 541L640 541L640 541L576 541L576 541L512 541L512 541L448 541L448 541L384 541L384 541L320 541L320 541L256 541L256 541L192 541L192 541L128 541L128 541L64 541L64 541L0 541Z" fill="#005edc"></path></svg>