<svg width="960" height="540" xmlns="http://www.w3.org/2000/svg"><path fill="#182E4C" d="M0 0h960v540H0z"/><path d="M0 466h64v-15h64v-1h64v11h64v-5h64v6h64v-18h64v31h64v-14h64v-5h64v-1h64v2h64v-5h64v-1h64v4h64v-1 87H0Z" fill="#6c63ff"/><path d="M0 463h64v1h64v7h64v-8h64v26h64v-23h64v12h64v-5h64v3h64v9h64v9h64v-9h64v-12h64v18h64v3h64v-15 62H0Z" fill="#5262f4"/><path d="M0 484h64v16h64v5h64v-12h64v13h64v-19h64v12h64v9h64v1h64v1h64v-20h64v15h64v-4h64v-9h64v2h64v-9 56H0Z" fill="#3560e8"/><path d="M0 525h64v-15h64v-8h64v22h64v-11h64v16h64v-12h64v6h64v-10h64v-9h64v23h64v-18h64v15h64v-10h64v-2h64v29H0Z" fill="#005edc"/></svg>