<svg width="900" height="600" xmlns="http://www.w3.org/2000/svg"><g stroke-linejoin="bevel"><path d="m447 307-30-69-18 51Z" fill="#5960ee" stroke="#5960ee"/><path d="m447 307-13-74-17 5Z" fill="#144895" stroke="#144895"/><path d="m495 262-35-46-26 17Z" fill="#3658cb" stroke="#3658cb"/><path d="m434 233-45-32 28 37Z" fill="#114282" stroke="#114282"/><path d="m447 307 48-45-61-29Z" fill="#475cdd" stroke="#475cdd"/><path d="m447 307 57-7-9-38Z" fill="#5960ee" stroke="#5960ee"/><path d="m437 163-48 38 45 32Z" fill="#1c4ea7" stroke="#1c4ea7"/><path d="m338 255 3 36 58-2Z" fill="#15355e" stroke="#15355e"/><path d="m383 367 66-5-2-55Z" fill="#3658cb" stroke="#3658cb"/><path d="m447 307 50 52 7-59Z" fill="#114282" stroke="#114282"/><path d="m338 255 61 34 18-51Z" fill="#1c4ea7" stroke="#1c4ea7"/><path d="m399 289-16 78 64-60Z" fill="#182e4c" stroke="#182e4c"/><path d="m553 259-50-50-8 53Z" fill="#5960ee" stroke="#5960ee"/><path d="m495 262 8-53-43 7Z" fill="#6c63ff" stroke="#6c63ff"/><path d="m460 216-23-53-3 70Z" fill="#182e4c" stroke="#182e4c"/><path d="m360 209-22 46 79-17Z" fill="#133b70" stroke="#133b70"/><path d="m389 201-29 8 57 29Z" fill="#2853b9" stroke="#2853b9"/><path d="m341 291 5 43 53-45Z" fill="#475cdd" stroke="#475cdd"/><path d="m346 334 37 33 16-78ZM467 392l30-33-48 3Z" fill="#144895" stroke="#144895"/><path d="m449 362 48-3-50-52Z" fill="#182e4c" stroke="#182e4c"/><path d="m495 167-58-4 23 53Z" fill="#133b70" stroke="#133b70"/><path d="m389 201-34-36 5 44Z" fill="#1c4ea7" stroke="#1c4ea7"/><path d="m562 287-9-28-49 41Z" fill="#133b70" stroke="#133b70"/><path d="m504 300 49-41-58 3Z" fill="#2853b9" stroke="#2853b9"/><path d="m556 201-61-34 8 42Z" fill="#114282" stroke="#114282"/><path d="m503 209-8-42-35 49Z" fill="#1c4ea7" stroke="#1c4ea7"/><path d="m415 112-1 38 44-41Z" fill="#15355e" stroke="#15355e"/><path d="m437 163-23-13-25 51Z" fill="#2853b9" stroke="#2853b9"/><path d="m398 394 69-2-18-30Z" fill="#15355e" stroke="#15355e"/><path d="m337 399 61-5-15-27Z" fill="#6c63ff" stroke="#6c63ff"/><path d="m383 367 15 27 51-32Z" fill="#475cdd" stroke="#475cdd"/><path d="m553 343 9-56-58 13Z" fill="#144895" stroke="#144895"/><path d="m414 150-59 15 34 36Z" fill="#114282" stroke="#114282"/><path d="m288 194-3 62 53-1Z" fill="#15355e" stroke="#15355e"/><path d="m467 392 31-1-1-32Z" fill="#133b70" stroke="#133b70"/><path d="m497 359 56-16-49-43Z" fill="#1c4ea7" stroke="#1c4ea7"/><path d="m562 394-9-51-56 16Z" fill="#114282" stroke="#114282"/><path d="m594 260-38-59-3 58Z" fill="#2853b9" stroke="#2853b9"/><path d="m553 259 3-58-53 8Z" fill="#1c4ea7" stroke="#1c4ea7"/><path d="m338 255-48 33 51 3Z" fill="#144895" stroke="#144895"/><path d="m341 291-40 48 45-5Z" fill="#2853b9" stroke="#2853b9"/><path d="m346 334-9 65 46-32ZM285 256l5 32 48-33Z" fill="#5960ee" stroke="#5960ee"/><path d="m290 288 11 51 40-48Z" fill="#114282" stroke="#114282"/><path d="m288 194 50 61 22-46Z" fill="#15355e" stroke="#15355e"/><path d="m301 339 36 60 9-65ZM398 394l41 52 28-54Z" fill="#114282" stroke="#114282"/><path d="m467 392 43 56-12-57Z" fill="#5960ee" stroke="#5960ee"/><path d="m458 109-44 41 23 13Z" fill="#2853b9" stroke="#2853b9"/><path d="m414 150-63-38 4 53Z" fill="#5960ee" stroke="#5960ee"/><path d="m458 109-21 54 58 4ZM612 296l-18-36-32 27Z" fill="#1c4ea7" stroke="#1c4ea7"/><path d="m562 287 32-27-41-1Z" fill="#114282" stroke="#114282"/><path d="m299 135-11 59 67-29Z" fill="#133b70" stroke="#133b70"/><path d="m355 165-67 29 72 15Z" fill="#3658cb" stroke="#3658cb"/><path d="m515 94-57 15 37 58Z" fill="#6c63ff" stroke="#6c63ff"/><path d="m337 399 49 40 12-45Z" fill="#133b70" stroke="#133b70"/><path d="m386 439 53 7-41-52Z" fill="#114282" stroke="#114282"/><path d="m498 391 64 3-65-35Z" fill="#6c63ff" stroke="#6c63ff"/><path d="m288 194-22 22 19 40Z" fill="#1c4ea7" stroke="#1c4ea7"/><path d="m285 256-38 41 43-9Z" fill="#114282" stroke="#114282"/><path d="m251 347 36 38 14-46Z" fill="#475cdd" stroke="#475cdd"/><path d="m510 448 52-54-64-3Z" fill="#1c4ea7" stroke="#1c4ea7"/><path d="m553 343 59-47-50-9Z" fill="#114282" stroke="#114282"/><path d="m383 61-32 51h64Z" fill="#15355e" stroke="#15355e"/><path d="M415 112h-64l63 38Z" fill="#475cdd" stroke="#475cdd"/><path d="m288 194-43-39 21 61Z" fill="#2853b9" stroke="#2853b9"/><path d="m603 356 9-60-59 47Z" fill="#182e4c" stroke="#182e4c"/><path d="m594 260 1-74-39 15Z" fill="#15355e" stroke="#15355e"/><path d="m556 201 10-56-71 22Z" fill="#2853b9" stroke="#2853b9"/><path d="m645 235-50-49-1 74Z" fill="#133b70" stroke="#133b70"/><path d="m247 297 54 42-11-51Z" fill="#182e4c" stroke="#182e4c"/><path d="m301 339-14 46 50 14Z" fill="#144895" stroke="#144895"/><path d="m337 399 5 65 44-25Z" fill="#1c4ea7" stroke="#1c4ea7"/><path d="m595 186-29-41-10 56Z" fill="#182e4c" stroke="#182e4c"/><path d="m266 216-17 32 36 8Z" fill="#2853b9" stroke="#2853b9"/><path d="m249 248-2 49 38-41Z" fill="#15355e" stroke="#15355e"/><path d="m562 394 41-38-50-13Z" fill="#114282" stroke="#114282"/><path d="m351 112-52 23 56 30Z" fill="#182e4c" stroke="#182e4c"/><path d="m266 216-62 25 45 7ZM439 446l71 2-43-56Z" fill="#1c4ea7" stroke="#1c4ea7"/><path d="m562 394 25 21 16-59Z" fill="#15355e" stroke="#15355e"/><path d="m566 145-51-51-20 73ZM458 109l-18-50-25 53Z" fill="#182e4c" stroke="#182e4c"/><path d="m247 297 4 50 50-8Z" fill="#144895" stroke="#144895"/><path d="m595 186 1-38-30-3Z" fill="#475cdd" stroke="#475cdd"/><path d="m566 145-14-56-37 5Z" fill="#114282" stroke="#114282"/><path d="m637 193-41-45-1 38Z" fill="#475cdd" stroke="#475cdd"/><path d="m562 447 25-32-25-21ZM314 450l23-51-50-14Z" fill="#114282" stroke="#114282"/><path d="m314 450 28 14-5-65Z" fill="#475cdd" stroke="#475cdd"/><path d="m386 439 17 57 36-50Z" fill="#3658cb" stroke="#3658cb"/><path d="m439 446-1 68 72-66ZM515 94l-75-35 18 50Z" fill="#15355e" stroke="#15355e"/><path d="m351 112-57-5 5 28Z" fill="#144895" stroke="#144895"/><path d="m257 446 57 4-27-65Z" fill="#5960ee" stroke="#5960ee"/><path d="m667 289-22-54-33 61Z" fill="#2853b9" stroke="#2853b9"/><path d="m612 296 33-61-51 25Z" fill="#6c63ff" stroke="#6c63ff"/><path d="m667 289-55 7 52 44Z" fill="#3658cb" stroke="#3658cb"/><path d="m334 63-40 44 57 5Z" fill="#5960ee" stroke="#5960ee"/><path d="m299 135-54 20 43 39Z" fill="#6c63ff" stroke="#6c63ff"/><path d="m440 59-57 2 32 51Z" fill="#114282" stroke="#114282"/><path d="m514 510 48-63-52 1Z" fill="#6c63ff" stroke="#6c63ff"/><path d="m510 448 52-1v-53Z" fill="#133b70" stroke="#133b70"/><path d="m601 112-49-23 14 56Z" fill="#1c4ea7" stroke="#1c4ea7"/><path d="m515 94-8-62-67 27Z" fill="#3658cb" stroke="#3658cb"/><path d="m645 235-8-42-42-7Z" fill="#133b70" stroke="#133b70"/><path d="m596 148 5-36-35 33Z" fill="#1c4ea7" stroke="#1c4ea7"/><path d="m261 106-16 49 54-20Z" fill="#15355e" stroke="#15355e"/><path d="m249 248-45-7 43 56Z" fill="#182e4c" stroke="#182e4c"/><path d="m207 357 36 35 8-45Z" fill="#1c4ea7" stroke="#1c4ea7"/><path d="m251 347-8 45 44-7Z" fill="#2853b9" stroke="#2853b9"/><path d="m203 306 48 41-4-50Z" fill="#5960ee" stroke="#5960ee"/><path d="m333 501 70-5-61-32Z" fill="#144895" stroke="#144895"/><path d="m342 464 61 32-17-57Z" fill="#5960ee" stroke="#5960ee"/><path d="m187 182 17 59 62-25Z" fill="#475cdd" stroke="#475cdd"/><path d="m383 61-49 2 17 49Z" fill="#6c63ff" stroke="#6c63ff"/><path d="m294 107-33-1 38 29Z" fill="#3658cb" stroke="#3658cb"/><path d="m562 447 37-13-12-19Z" fill="#144895" stroke="#144895"/><path d="m587 415 79 1-63-60Z" fill="#182e4c" stroke="#182e4c"/><path d="m204 241-1 65 44-9Z" fill="#5960ee" stroke="#5960ee"/><path d="m643 106-42 6-5 36Z" fill="#133b70" stroke="#133b70"/><path d="m664 340-52-44-9 60Z" fill="#182e4c" stroke="#182e4c"/><path d="m691 189-29-36-25 40Z" fill="#144895" stroke="#144895"/><path d="m287 48-26 58 33 1Z" fill="#114282" stroke="#114282"/><path d="m245 155-58 27 79 34Z" fill="#2853b9" stroke="#2853b9"/><path d="m666 416-2-76-61 16Z" fill="#15355e" stroke="#15355e"/><path d="m203 306 4 51 44-10Z" fill="#5960ee" stroke="#5960ee"/><path d="m403 496 35 18 1-68Z" fill="#475cdd" stroke="#475cdd"/><path d="m562 447 47 48-10-61Z" fill="#114282" stroke="#114282"/><path d="M193 446h64l-14-54Z" fill="#144895" stroke="#144895"/><path d="m243 392 14 54 30-61Z" fill="#114282" stroke="#114282"/><path d="m314 450 19 51 9-37Z" fill="#2853b9" stroke="#2853b9"/><path d="m403 496 29 49 6-31Z" fill="#1c4ea7" stroke="#1c4ea7"/><path d="m293 496 40 5-19-51ZM438 514l76-4-4-62Z" fill="#144895" stroke="#144895"/><path d="m549 49-42-17 8 62Z" fill="#3658cb" stroke="#3658cb"/><path d="M440 59 409 0l-26 61Z" fill="#6c63ff" stroke="#6c63ff"/><path d="m295 0-8 48 47 15Z" fill="#475cdd" stroke="#475cdd"/><path d="m549 49-34 45 37-5Z" fill="#114282" stroke="#114282"/><path d="m617 35-68 14 3 40ZM664 340l23-34-20-17Z" fill="#1c4ea7" stroke="#1c4ea7"/><path d="m667 289 32-48-54-6Z" fill="#5960ee" stroke="#5960ee"/><path d="m637 193 25-40-66-5Z" fill="#475cdd" stroke="#475cdd"/><path d="m601 112 16-77-65 54Z" fill="#182e4c" stroke="#182e4c"/><path d="m691 189-54 4 8 42Z" fill="#133b70" stroke="#133b70"/><path d="m261 106-61 52 45-3Z" fill="#3658cb" stroke="#3658cb"/><path d="m204 241-46 24 45 41Z" fill="#5960ee" stroke="#5960ee"/><path d="m200 158-13 24 58-27Z" fill="#1c4ea7" stroke="#1c4ea7"/><path d="m203 306-44 52 48-1Z" fill="#475cdd" stroke="#475cdd"/><path d="m257 446 36 50 21-46Z" fill="#2853b9" stroke="#2853b9"/><path d="m353 0-19 63 49-2Z" fill="#6c63ff" stroke="#6c63ff"/><path d="m334 63-47-15 7 59Z" fill="#475cdd" stroke="#475cdd"/><path d="m261 106-73-16 12 68ZM662 153l-19-47-47 42Z" fill="#114282" stroke="#114282"/><path d="m687 306 12-65-32 48Z" fill="#182e4c" stroke="#182e4c"/><path d="m662 153 34-5-53-42Z" fill="#133b70" stroke="#133b70"/><path d="m557 555 4-44-47-1Z" fill="#5960ee" stroke="#5960ee"/><path d="m514 510 47 1 1-64Z" fill="#3658cb" stroke="#3658cb"/><path d="m599 434 67-18-79-1Z" fill="#2853b9" stroke="#2853b9"/><path d="m664 340 31 14-8-48Z" fill="#3658cb" stroke="#3658cb"/><path d="m699 241-8-52-46 46Z" fill="#1c4ea7" stroke="#1c4ea7"/><path d="M513 0h-70l64 32Z" fill="#144895" stroke="#144895"/><path d="M507 32 443 0l-3 59Z" fill="#144895" stroke="#144895"/><path d="m355 541 48-45-70 5Z" fill="#1c4ea7" stroke="#1c4ea7"/><path d="m411 560 21-15-29-49Z" fill="#114282" stroke="#114282"/><path d="m438 514 48 27 28-31Z" fill="#182e4c" stroke="#182e4c"/><path d="M443 0h-34l31 59ZM432 545l54-4-48-27Z" fill="#144895" stroke="#144895"/><path d="m658 433 8-17-67 18Z" fill="#114282" stroke="#114282"/><path d="m161 210-3 55 46-24Z" fill="#475cdd" stroke="#475cdd"/><path d="m666 416 29-62-31-14Z" fill="#114282" stroke="#114282"/><path d="m757 284-7-36-51-7Z" fill="#475cdd" stroke="#475cdd"/><path d="m609 495 49-62-59 1Z" fill="#1c4ea7" stroke="#1c4ea7"/><path d="m187 182-26 28 43 31Z" fill="#3658cb" stroke="#3658cb"/><path d="m146 134 15 76 26-28Z" fill="#1c4ea7" stroke="#1c4ea7"/><path d="m207 357-22 44 58-9ZM257 446l-12 63 48-13Z" fill="#3658cb" stroke="#3658cb"/><path d="m159 358 26 43 22-44Z" fill="#1c4ea7" stroke="#1c4ea7"/><path d="m317 545 38-4-22-40Z" fill="#5960ee" stroke="#5960ee"/><path d="M409 0h-56l30 61Z" fill="#2853b9" stroke="#2853b9"/><path d="M549 49 513 0l-6 32Z" fill="#144895" stroke="#144895"/><path d="M563 0h-50l36 49Z" fill="#133b70" stroke="#133b70"/><path d="m590 538 19-43-48 16Z" fill="#144895" stroke="#144895"/><path d="m561 511 48-16-47-48Z" fill="#5960ee" stroke="#5960ee"/><path d="m136 289 23 69 44-52Z" fill="#144895" stroke="#144895"/><path d="m355 541 56 19-8-64Z" fill="#475cdd" stroke="#475cdd"/><path d="m432 545 6 55 48-59Z" fill="#1c4ea7" stroke="#1c4ea7"/><path d="M232 0v62l55-14ZM287 48l-55 14 29 44Z" fill="#3658cb" stroke="#3658cb"/><path d="m200 158-54-24 41 48Z" fill="#6c63ff" stroke="#6c63ff"/><path d="m691 189 5-41-34 5Z" fill="#1c4ea7" stroke="#1c4ea7"/><path d="m643 106-26-71-16 77Z" fill="#144895" stroke="#144895"/><path d="m761 144-65 4-5 41Z" fill="#475cdd" stroke="#475cdd"/><path d="m156 417 37 29-8-45Z" fill="#133b70" stroke="#133b70"/><path d="m185 401 8 45 50-54Z" fill="#475cdd" stroke="#475cdd"/><path d="m293 496 24 49 16-44Z" fill="#15355e" stroke="#15355e"/><path d="m245 509 72 36-24-49Z" fill="#114282" stroke="#114282"/><path d="M405 600h33l-27-40Z" fill="#6c63ff" stroke="#6c63ff"/><path d="m158 265-22 24 67 17Z" fill="#2853b9" stroke="#2853b9"/><path d="m83 248 53 41 22-24Z" fill="#144895" stroke="#144895"/><path d="m232 0-15 66 15-4Z" fill="#1c4ea7" stroke="#1c4ea7"/><path d="m232 62-15 4 44 40Z" fill="#114282" stroke="#114282"/><path d="m651 32-34 3 26 71Z" fill="#144895" stroke="#144895"/><path d="M588 0h-25l-14 49Z" fill="#2853b9" stroke="#2853b9"/><path d="m189 487 56 22 12-63Z" fill="#3658cb" stroke="#3658cb"/><path d="M353 0h-58l39 63Z" fill="#144895" stroke="#144895"/><path d="m154 110 34-20-47-27Z" fill="#5960ee" stroke="#5960ee"/><path d="m217 66-29 24 73 16Z" fill="#182e4c" stroke="#182e4c"/><path d="m83 248 27 58 26-17Z" fill="#15355e" stroke="#15355e"/><path d="m557 555 33-17-29-27Z" fill="#144895" stroke="#144895"/><path d="m683 490 4-32-29-25Z" fill="#15355e" stroke="#15355e"/><path d="m557 555-43-45-28 31Z" fill="#133b70" stroke="#133b70"/><path d="m513 600 44-45-71-14Z" fill="#5960ee" stroke="#5960ee"/><path d="m159 358-3 59 29-16ZM193 446l-4 41 68-41Z" fill="#182e4c" stroke="#182e4c"/><path d="M99 417h57l3-59Z" fill="#144895" stroke="#144895"/><path d="M617 35 588 0l-39 49ZM649 509l9-76-49 62Z" fill="#182e4c" stroke="#182e4c"/><path d="m658 433 29 25-21-42Z" fill="#475cdd" stroke="#475cdd"/><path d="m666 416 49 1-20-63Z" fill="#133b70" stroke="#133b70"/><path d="m687 458 28-41-49-1Z" fill="#114282" stroke="#114282"/><path d="m757 284-58-43-12 65Z" fill="#133b70" stroke="#133b70"/><path d="m699 241 65-27-73-25Z" fill="#475cdd" stroke="#475cdd"/><path d="m154 110-8 24 54 24Z" fill="#15355e" stroke="#15355e"/><path d="m757 284-70 22 67 54Z" fill="#182e4c" stroke="#182e4c"/><path d="M649 567v-58l-59 29Z" fill="#114282" stroke="#114282"/><path d="m590 538 59-29-40-14Z" fill="#3658cb" stroke="#3658cb"/><path d="m141 63 47 27 29-24Z" fill="#114282" stroke="#114282"/><path d="m188 90-34 20 46 48Z" fill="#3658cb" stroke="#3658cb"/><path d="m83 248 75 17 3-55Z" fill="#6c63ff" stroke="#6c63ff"/><path d="m136 289-28 47 51 22ZM754 360l-67-54 8 48ZM706 52l-55-20-8 74Z" fill="#1c4ea7" stroke="#1c4ea7"/><path d="m617 35 17-35h-46ZM715 109l-72-3 53 42Z" fill="#144895" stroke="#144895"/><path d="m150 495 39-8 4-41Z" fill="#2853b9" stroke="#2853b9"/><path d="m245 509-10 26 82 10Z" fill="#3658cb" stroke="#3658cb"/><path d="m745 112-30-3-19 39Z" fill="#15355e" stroke="#15355e"/><path d="m405 600 6-40-56-19Z" fill="#2853b9" stroke="#2853b9"/><path d="m411 560 27 40-6-55ZM405 600l-50-59-17 59Z" fill="#133b70" stroke="#133b70"/><path d="m217 536 18-1 10-26Z" fill="#1c4ea7" stroke="#1c4ea7"/><path d="m338 600 17-59-38 4Z" fill="#3658cb" stroke="#3658cb"/><path d="m110 306-2 30 28-47Z" fill="#182e4c" stroke="#182e4c"/><path d="m156 417-21 23 58 6Z" fill="#1c4ea7" stroke="#1c4ea7"/><path d="m750 459 7-60-42 18Z" fill="#3658cb" stroke="#3658cb"/><path d="m649 509 34-19-25-57Z" fill="#5960ee" stroke="#5960ee"/><path d="m715 417 39-57-59-6ZM757 399l-3-39-39 57Z" fill="#6c63ff" stroke="#6c63ff"/><path d="m783 260-19-46-14 34Z" fill="#2853b9" stroke="#2853b9"/><path d="m750 248 14-34-65 27Z" fill="#5960ee" stroke="#5960ee"/><path d="m783 260-33-12 7 36Z" fill="#114282" stroke="#114282"/><path d="M438 600h75l-27-59Z" fill="#3658cb" stroke="#3658cb"/><path d="m606 600 43-33-59-29Z" fill="#144895" stroke="#144895"/><path d="m649 509 64 48-30-67Z" fill="#15355e" stroke="#15355e"/><path d="M295 0h-63l55 48Z" fill="#1c4ea7" stroke="#1c4ea7"/><path d="M710 0h-76l17 32Z" fill="#5960ee" stroke="#5960ee"/><path d="M651 32 634 0l-17 35ZM189 487l28 49 28-27Z" fill="#15355e" stroke="#15355e"/><path d="M298 600h40l-21-55Z" fill="#2853b9" stroke="#2853b9"/><path d="m298 600 19-55-82-10Z" fill="#5960ee" stroke="#5960ee"/><path d="m99 417 36 23 21-23Z" fill="#2853b9" stroke="#2853b9"/><path d="m189 487-36 67 64-18Z" fill="#182e4c" stroke="#182e4c"/><path d="M513 600h24l20-45Z" fill="#2853b9" stroke="#2853b9"/><path d="m750 459-35-42-28 41Z" fill="#6c63ff" stroke="#6c63ff"/><path d="m810 292-27-32-26 24Z" fill="#133b70" stroke="#133b70"/><path d="m92 96 10 60 44-22ZM146 134l-44 22 59 54Z" fill="#475cdd" stroke="#475cdd"/><path d="m110 306-44-14 42 44Z" fill="#114282" stroke="#114282"/><path d="m92 96 54 38 8-24Z" fill="#2853b9" stroke="#2853b9"/><path d="m86 202-3 46 78-38Z" fill="#133b70" stroke="#133b70"/><path d="m108 336-9 81 60-59Z" fill="#5960ee" stroke="#5960ee"/><path d="m810 292-53-8-3 76Z" fill="#182e4c" stroke="#182e4c"/><path d="m745 62-39-10 9 57Z" fill="#6c63ff" stroke="#6c63ff"/><path d="m715 109-9-57-63 54Z" fill="#133b70" stroke="#133b70"/><path d="m745 112-49 36 65-4Z" fill="#3658cb" stroke="#3658cb"/><path d="m761 144-70 45 73 25Z" fill="#114282" stroke="#114282"/><path d="m810 202-49-58 3 70Z" fill="#2853b9" stroke="#2853b9"/><path d="m102 156-16 46 75 8ZM239 600h59l-63-65Z" fill="#475cdd" stroke="#475cdd"/><path d="m196 0-55 63 76 3Z" fill="#3658cb" stroke="#3658cb"/><path d="m135 440 15 55 43-49Z" fill="#114282" stroke="#114282"/><path d="m217 536 22 64-4-65Z" fill="#3658cb" stroke="#3658cb"/><path d="M232 0h-36l21 66Z" fill="#1c4ea7" stroke="#1c4ea7"/><path d="m58 400 41 17 9-81Z" fill="#475cdd" stroke="#475cdd"/><path d="m135 440-36 77 51-22Z" fill="#5960ee" stroke="#5960ee"/><path d="m606 600-16-62-33 17Z" fill="#144895" stroke="#144895"/><path d="m736 488 14-29-63-1Z" fill="#475cdd" stroke="#475cdd"/><path d="m37 248 29 44 17-44Z" fill="#114282" stroke="#114282"/><path d="m83 248-17 44 44 14Z" fill="#1c4ea7" stroke="#1c4ea7"/><path d="m736 488-49-30-4 32ZM810 367v-75l-56 68Z" fill="#475cdd" stroke="#475cdd"/><path d="M537 600h69l-49-45Z" fill="#5960ee" stroke="#5960ee"/><path d="m713 557 23-69-53 2Z" fill="#114282" stroke="#114282"/><path d="m784 115-39-53v50Z" fill="#1c4ea7" stroke="#1c4ea7"/><path d="M745 112V62l-30 47Z" fill="#144895" stroke="#144895"/><path d="m706 52 4-52-59 32Z" fill="#133b70" stroke="#133b70"/><path d="m810 367-56-7 3 39Z" fill="#1c4ea7" stroke="#1c4ea7"/><path d="m783 260 27-58-46 12Z" fill="#2853b9" stroke="#2853b9"/><path d="m761 144 23-29-39-3Z" fill="#114282" stroke="#114282"/><path d="m67 167-4 23 23 12Z" fill="#144895" stroke="#144895"/><path d="m86 202-23-12 20 58Z" fill="#2853b9" stroke="#2853b9"/><path d="m67 167 19 35 16-46Z" fill="#1c4ea7" stroke="#1c4ea7"/><path d="m92 96-25 71 35-11ZM186 600h53l-22-64Z" fill="#133b70" stroke="#133b70"/><path d="m84 41 8 55 49-33Z" fill="#6c63ff" stroke="#6c63ff"/><path d="M141 63 92 96l62 14Z" fill="#133b70" stroke="#133b70"/><path d="m845 201-35 1 43 53Z" fill="#1c4ea7" stroke="#1c4ea7"/><path d="m812 138-28-23-23 29Z" fill="#3658cb" stroke="#3658cb"/><path d="M196 0h-38l-17 63Z" fill="#144895" stroke="#144895"/><path d="m754 0-48 52 39 10Z" fill="#6c63ff" stroke="#6c63ff"/><path d="M754 0h-44l-4 52Z" fill="#1c4ea7" stroke="#1c4ea7"/><path d="m812 414-2-47-53 32Z" fill="#3658cb" stroke="#3658cb"/><path d="m789 441-32-42-7 60Z" fill="#475cdd" stroke="#475cdd"/><path d="m99 417-17 27 53-4Z" fill="#1c4ea7" stroke="#1c4ea7"/><path d="m150 495 3 59 36-67Z" fill="#114282" stroke="#114282"/><path d="m58 400 24 44 17-27Z" fill="#6c63ff" stroke="#6c63ff"/><path d="m0 300 44 33 22-41Z" fill="#133b70" stroke="#133b70"/><path d="m66 292-22 41 64 3Z" fill="#144895" stroke="#144895"/><path d="m810 482-60-23-14 29Z" fill="#114282" stroke="#114282"/><path d="m810 482-21-41-39 18Z" fill="#114282" stroke="#114282"/><path d="M606 600h46l-3-33Z" fill="#1c4ea7" stroke="#1c4ea7"/><path d="m649 567 64-10-64-48Z" fill="#5960ee" stroke="#5960ee"/><path d="m44 333 14 67 50-64Z" fill="#114282" stroke="#114282"/><path d="m0 257 37-9-37-42Z" fill="#1c4ea7" stroke="#1c4ea7"/><path d="m63 190-26 58h46Z" fill="#15355e" stroke="#15355e"/><path d="m37 248 26-58-63 16Z" fill="#15355e" stroke="#15355e"/><path d="m99 517 54 37-3-59Z" fill="#6c63ff" stroke="#6c63ff"/><path d="m711 600 2-43-64 10Z" fill="#133b70" stroke="#133b70"/><path d="m810 202 2-64-51 6Z" fill="#2853b9" stroke="#2853b9"/><path d="M786 0h-32l-9 62Z" fill="#133b70" stroke="#133b70"/><path d="m851 149-39-11-2 64Z" fill="#3658cb" stroke="#3658cb"/><path d="m810 202-27 58 70-5Z" fill="#475cdd" stroke="#475cdd"/><path d="m810 482 2-68-23 27Z" fill="#144895" stroke="#144895"/><path d="m789 441 23-27-55-15Z" fill="#475cdd" stroke="#475cdd"/><path d="m853 255-70 5 27 32Z" fill="#1c4ea7" stroke="#1c4ea7"/><path d="m153 554 33 46 31-64Z" fill="#3658cb" stroke="#3658cb"/><path d="m50 509 49 8-17-73Z" fill="#6c63ff" stroke="#6c63ff"/><path d="m82 444 17 73 36-77Z" fill="#144895" stroke="#144895"/><path d="m153 554 11 46h22Z" fill="#5960ee" stroke="#5960ee"/><path d="m0 387 49 45 9-32Z" fill="#3658cb" stroke="#3658cb"/><path d="m58 400-9 32 33 12ZM0 364l58 36-14-67Z" fill="#2853b9" stroke="#2853b9"/><path d="M103 0 84 41l57 22Z" fill="#5960ee" stroke="#5960ee"/><path d="m92 96-53-5 28 76Z" fill="#1c4ea7" stroke="#1c4ea7"/><path d="m853 255-43 37 46 24Z" fill="#182e4c" stroke="#182e4c"/><path d="m850 346-40-54v75ZM810 61l-26 54 52-29Z" fill="#5960ee" stroke="#5960ee"/><path d="m810 61-65 1 39 53Z" fill="#15355e" stroke="#15355e"/><path d="m713 557 36-5-13-64Z" fill="#3658cb" stroke="#3658cb"/><path d="m739 600 10-48-36 5Z" fill="#114282" stroke="#114282"/><path d="m861 388-51-21 2 47Z" fill="#144895" stroke="#144895"/><path d="m861 388-11-42-40 21Z" fill="#133b70" stroke="#133b70"/><path d="m110 560 54 40-11-46Z" fill="#15355e" stroke="#15355e"/><path d="m850 346 6-30-46-24Z" fill="#2853b9" stroke="#2853b9"/><path d="M158 0h-55l38 63Z" fill="#6c63ff" stroke="#6c63ff"/><path d="M652 600h59l-62-33Z" fill="#182e4c" stroke="#182e4c"/><path d="m800 537-64-49 13 64Z" fill="#2853b9" stroke="#2853b9"/><path d="m800 537 10-55-74 6Z" fill="#15355e" stroke="#15355e"/><path d="m65 542 45 18-11-43Z" fill="#1c4ea7" stroke="#1c4ea7"/><path d="m99 517 11 43 43-6Z" fill="#3658cb" stroke="#3658cb"/><path d="m836 86-52 29 28 23Z" fill="#133b70" stroke="#133b70"/><path d="m0 206 63-16 4-23Z" fill="#5960ee" stroke="#5960ee"/><path d="M37 248 0 300l66-8ZM53 41l39 55-8-55Z" fill="#144895" stroke="#144895"/><path d="M53 41 39 91l53 5Z" fill="#144895" stroke="#144895"/><path d="M0 257v43l37-52Z" fill="#1c4ea7" stroke="#1c4ea7"/><path d="m900 164-49-15-6 52Z" fill="#5960ee" stroke="#5960ee"/><path d="m845 201 6-52-41 53Z" fill="#5960ee" stroke="#5960ee"/><path d="m900 247-55-46 8 54Z" fill="#3658cb" stroke="#3658cb"/><path d="M0 132v74l67-39Z" fill="#475cdd" stroke="#475cdd"/><path d="M0 300v64l44-31Z" fill="#6c63ff" stroke="#6c63ff"/><path d="m49 432 1 77 32-65ZM900 365v-59l-44 10ZM900 306v-59l-47 8Z" fill="#2853b9" stroke="#2853b9"/><path d="m863 451-2-63-49 26Z" fill="#6c63ff" stroke="#6c63ff"/><path d="m851 149-15-63-24 52Z" fill="#182e4c" stroke="#182e4c"/><path d="M810 61 786 0l-41 62Z" fill="#1c4ea7" stroke="#1c4ea7"/><path d="m37 0 16 41h31Z" fill="#114282" stroke="#114282"/><path d="M39 91 0 132l67 35Z" fill="#15355e" stroke="#15355e"/><path d="M837 37 786 0l24 61Z" fill="#3658cb" stroke="#3658cb"/><path d="M0 364v23l58 13Z" fill="#475cdd" stroke="#475cdd"/><path d="M711 600h28l-26-43Z" fill="#15355e" stroke="#15355e"/><path d="m0 455 50 54-1-77Z" fill="#182e4c" stroke="#182e4c"/><path d="m788 600 12-63-51 15Z" fill="#6c63ff" stroke="#6c63ff"/><path d="m810 482 53-31-51-37Z" fill="#2853b9" stroke="#2853b9"/><path d="M0 92v40l39-41Z" fill="#3658cb" stroke="#3658cb"/><path d="m50 509 15 33 34-25Z" fill="#114282" stroke="#114282"/><path d="m110 560-10 40h64Z" fill="#1c4ea7" stroke="#1c4ea7"/><path d="m845 514 18-63-53 31Z" fill="#114282" stroke="#114282"/><path d="m65 542 35 58 10-40Z" fill="#5960ee" stroke="#5960ee"/><path d="m900 86-63-49-1 49Z" fill="#144895" stroke="#144895"/><path d="m836 86 1-49-27 24Z" fill="#144895" stroke="#144895"/><path d="m900 306-47-51 3 61Z" fill="#3658cb" stroke="#3658cb"/><path d="m851 149 49-63h-64Z" fill="#475cdd" stroke="#475cdd"/><path d="m856 316-6 30 50 19Z" fill="#2853b9" stroke="#2853b9"/><path d="m900 365-50-19 11 42Z" fill="#114282" stroke="#114282"/><path d="M0 48v44l39-1Z" fill="#6c63ff" stroke="#6c63ff"/><path d="M50 509 0 563l65-21Z" fill="#3658cb" stroke="#3658cb"/><path d="m65 542-21 58h56Z" fill="#144895" stroke="#144895"/><path d="M0 387v68l49-23Z" fill="#475cdd" stroke="#475cdd"/><path d="M900 247v-46h-55Z" fill="#114282" stroke="#114282"/><path d="M900 404v-39l-39 23Z" fill="#2853b9" stroke="#2853b9"/><path d="m800 537 45-23-35-32Z" fill="#5960ee" stroke="#5960ee"/><path d="m863 451 37-47-39-16Z" fill="#1c4ea7" stroke="#1c4ea7"/><path d="m856 556-11-42-45 23Z" fill="#182e4c" stroke="#182e4c"/><path d="M900 201v-37l-55 37Z" fill="#15355e" stroke="#15355e"/><path d="M103 0H37l47 41Z" fill="#6c63ff" stroke="#6c63ff"/><path d="M53 41 0 48l39 43Z" fill="#15355e" stroke="#15355e"/><path d="M739 600h49l-39-48Z" fill="#133b70" stroke="#133b70"/><path d="M900 456v-52l-37 47Z" fill="#3658cb" stroke="#3658cb"/><path d="M37 0 0 48l53-7Z" fill="#182e4c" stroke="#182e4c"/><path d="M900 37 842 0l-5 37Z" fill="#2853b9" stroke="#2853b9"/><path d="m837 37 5-37h-56Z" fill="#133b70" stroke="#133b70"/><path d="M0 455v59l50-5Z" fill="#6c63ff" stroke="#6c63ff"/><path d="m900 486-37-35-18 63Z" fill="#133b70" stroke="#133b70"/><path d="M900 486v-30l-37-5Z" fill="#133b70" stroke="#133b70"/><path d="M900 164V86l-49 63Z" fill="#3658cb" stroke="#3658cb"/><path d="m0 563 44 37 21-58Z" fill="#5960ee" stroke="#5960ee"/><path d="m788 600 68-44-56-19Z" fill="#6c63ff" stroke="#6c63ff"/><path d="M37 0H0v48Z" fill="#144895" stroke="#144895"/><path d="M900 556v-70l-55 28Z" fill="#2853b9" stroke="#2853b9"/><path d="M0 514v49l50-54Z" fill="#3658cb" stroke="#3658cb"/><path d="M900 86V37h-63Z" fill="#133b70" stroke="#133b70"/><path d="M900 37V0h-58Z" fill="#5960ee" stroke="#5960ee"/><path d="M788 600h76l-8-44Z" fill="#2853b9" stroke="#2853b9"/><path d="M856 556h44l-55-42Z" fill="#475cdd" stroke="#475cdd"/><path d="M0 563v37h44Z" fill="#15355e" stroke="#15355e"/><path d="m864 600 36-44h-44Z" fill="#5960ee" stroke="#5960ee"/><path d="M864 600h36v-44Z" fill="#2853b9" stroke="#2853b9"/></g></svg>