<svg id="visual" viewBox="0 0 900 600" width="900" height="600" xmlns="http://www.w3.org/2000/svg" xmlns:xlink="http://www.w3.org/1999/xlink" version="1.1"><g stroke-width="1" stroke-linejoin="bevel"><path d="M447 307L417 238L399 289Z" fill="#5960ee" stroke="#5960ee"></path><path d="M447 307L434 233L417 238Z" fill="#144895" stroke="#144895"></path><path d="M495 262L460 216L434 233Z" fill="#3658cb" stroke="#3658cb"></path><path d="M434 233L389 201L417 238Z" fill="#114282" stroke="#114282"></path><path d="M447 307L495 262L434 233Z" fill="#475cdd" stroke="#475cdd"></path><path d="M447 307L504 300L495 262Z" fill="#5960ee" stroke="#5960ee"></path><path d="M437 163L389 201L434 233Z" fill="#1c4ea7" stroke="#1c4ea7"></path><path d="M338 255L341 291L399 289Z" fill="#15355e" stroke="#15355e"></path><path d="M383 367L449 362L447 307Z" fill="#3658cb" stroke="#3658cb"></path><path d="M447 307L497 359L504 300Z" fill="#114282" stroke="#114282"></path><path d="M338 255L399 289L417 238Z" fill="#1c4ea7" stroke="#1c4ea7"></path><path d="M399 289L383 367L447 307Z" fill="#182e4c" stroke="#182e4c"></path><path d="M553 259L503 209L495 262Z" fill="#5960ee" stroke="#5960ee"></path><path d="M495 262L503 209L460 216Z" fill="#6c63ff" stroke="#6c63ff"></path><path d="M460 216L437 163L434 233Z" fill="#182e4c" stroke="#182e4c"></path><path d="M360 209L338 255L417 238Z" fill="#133b70" stroke="#133b70"></path><path d="M389 201L360 209L417 238Z" fill="#2853b9" stroke="#2853b9"></path><path d="M341 291L346 334L399 289Z" fill="#475cdd" stroke="#475cdd"></path><path d="M346 334L383 367L399 289Z" fill="#144895" stroke="#144895"></path><path d="M467 392L497 359L449 362Z" fill="#144895" stroke="#144895"></path><path d="M449 362L497 359L447 307Z" fill="#182e4c" stroke="#182e4c"></path><path d="M495 167L437 163L460 216Z" fill="#133b70" stroke="#133b70"></path><path d="M389 201L355 165L360 209Z" fill="#1c4ea7" stroke="#1c4ea7"></path><path d="M562 287L553 259L504 300Z" fill="#133b70" stroke="#133b70"></path><path d="M504 300L553 259L495 262Z" fill="#2853b9" stroke="#2853b9"></path><path d="M556 201L495 167L503 209Z" fill="#114282" stroke="#114282"></path><path d="M503 209L495 167L460 216Z" fill="#1c4ea7" stroke="#1c4ea7"></path><path d="M415 112L414 150L458 109Z" fill="#15355e" stroke="#15355e"></path><path d="M437 163L414 150L389 201Z" fill="#2853b9" stroke="#2853b9"></path><path d="M398 394L467 392L449 362Z" fill="#15355e" stroke="#15355e"></path><path d="M337 399L398 394L383 367Z" fill="#6c63ff" stroke="#6c63ff"></path><path d="M383 367L398 394L449 362Z" fill="#475cdd" stroke="#475cdd"></path><path d="M553 343L562 287L504 300Z" fill="#144895" stroke="#144895"></path><path d="M414 150L355 165L389 201Z" fill="#114282" stroke="#114282"></path><path d="M288 194L285 256L338 255Z" fill="#15355e" stroke="#15355e"></path><path d="M467 392L498 391L497 359Z" fill="#133b70" stroke="#133b70"></path><path d="M497 359L553 343L504 300Z" fill="#1c4ea7" stroke="#1c4ea7"></path><path d="M562 394L553 343L497 359Z" fill="#114282" stroke="#114282"></path><path d="M594 260L556 201L553 259Z" fill="#2853b9" stroke="#2853b9"></path><path d="M553 259L556 201L503 209Z" fill="#1c4ea7" stroke="#1c4ea7"></path><path d="M338 255L290 288L341 291Z" fill="#144895" stroke="#144895"></path><path d="M341 291L301 339L346 334Z" fill="#2853b9" stroke="#2853b9"></path><path d="M346 334L337 399L383 367Z" fill="#5960ee" stroke="#5960ee"></path><path d="M285 256L290 288L338 255Z" fill="#5960ee" stroke="#5960ee"></path><path d="M290 288L301 339L341 291Z" fill="#114282" stroke="#114282"></path><path d="M288 194L338 255L360 209Z" fill="#15355e" stroke="#15355e"></path><path d="M301 339L337 399L346 334Z" fill="#114282" stroke="#114282"></path><path d="M398 394L439 446L467 392Z" fill="#114282" stroke="#114282"></path><path d="M467 392L510 448L498 391Z" fill="#5960ee" stroke="#5960ee"></path><path d="M458 109L414 150L437 163Z" fill="#2853b9" stroke="#2853b9"></path><path d="M414 150L351 112L355 165Z" fill="#5960ee" stroke="#5960ee"></path><path d="M458 109L437 163L495 167Z" fill="#1c4ea7" stroke="#1c4ea7"></path><path d="M612 296L594 260L562 287Z" fill="#1c4ea7" stroke="#1c4ea7"></path><path d="M562 287L594 260L553 259Z" fill="#114282" stroke="#114282"></path><path d="M299 135L288 194L355 165Z" fill="#133b70" stroke="#133b70"></path><path d="M355 165L288 194L360 209Z" fill="#3658cb" stroke="#3658cb"></path><path d="M515 94L458 109L495 167Z" fill="#6c63ff" stroke="#6c63ff"></path><path d="M337 399L386 439L398 394Z" fill="#133b70" stroke="#133b70"></path><path d="M386 439L439 446L398 394Z" fill="#114282" stroke="#114282"></path><path d="M498 391L562 394L497 359Z" fill="#6c63ff" stroke="#6c63ff"></path><path d="M288 194L266 216L285 256Z" fill="#1c4ea7" stroke="#1c4ea7"></path><path d="M285 256L247 297L290 288Z" fill="#114282" stroke="#114282"></path><path d="M251 347L287 385L301 339Z" fill="#475cdd" stroke="#475cdd"></path><path d="M510 448L562 394L498 391Z" fill="#1c4ea7" stroke="#1c4ea7"></path><path d="M553 343L612 296L562 287Z" fill="#114282" stroke="#114282"></path><path d="M383 61L351 112L415 112Z" fill="#15355e" stroke="#15355e"></path><path d="M415 112L351 112L414 150Z" fill="#475cdd" stroke="#475cdd"></path><path d="M288 194L245 155L266 216Z" fill="#2853b9" stroke="#2853b9"></path><path d="M603 356L612 296L553 343Z" fill="#182e4c" stroke="#182e4c"></path><path d="M594 260L595 186L556 201Z" fill="#15355e" stroke="#15355e"></path><path d="M556 201L566 145L495 167Z" fill="#2853b9" stroke="#2853b9"></path><path d="M645 235L595 186L594 260Z" fill="#133b70" stroke="#133b70"></path><path d="M247 297L301 339L290 288Z" fill="#182e4c" stroke="#182e4c"></path><path d="M301 339L287 385L337 399Z" fill="#144895" stroke="#144895"></path><path d="M337 399L342 464L386 439Z" fill="#1c4ea7" stroke="#1c4ea7"></path><path d="M595 186L566 145L556 201Z" fill="#182e4c" stroke="#182e4c"></path><path d="M266 216L249 248L285 256Z" fill="#2853b9" stroke="#2853b9"></path><path d="M249 248L247 297L285 256Z" fill="#15355e" stroke="#15355e"></path><path d="M562 394L603 356L553 343Z" fill="#114282" stroke="#114282"></path><path d="M351 112L299 135L355 165Z" fill="#182e4c" stroke="#182e4c"></path><path d="M266 216L204 241L249 248Z" fill="#1c4ea7" stroke="#1c4ea7"></path><path d="M439 446L510 448L467 392Z" fill="#1c4ea7" stroke="#1c4ea7"></path><path d="M562 394L587 415L603 356Z" fill="#15355e" stroke="#15355e"></path><path d="M566 145L515 94L495 167Z" fill="#182e4c" stroke="#182e4c"></path><path d="M458 109L440 59L415 112Z" fill="#182e4c" stroke="#182e4c"></path><path d="M247 297L251 347L301 339Z" fill="#144895" stroke="#144895"></path><path d="M595 186L596 148L566 145Z" fill="#475cdd" stroke="#475cdd"></path><path d="M566 145L552 89L515 94Z" fill="#114282" stroke="#114282"></path><path d="M637 193L596 148L595 186Z" fill="#475cdd" stroke="#475cdd"></path><path d="M562 447L587 415L562 394Z" fill="#114282" stroke="#114282"></path><path d="M314 450L337 399L287 385Z" fill="#114282" stroke="#114282"></path><path d="M314 450L342 464L337 399Z" fill="#475cdd" stroke="#475cdd"></path><path d="M386 439L403 496L439 446Z" fill="#3658cb" stroke="#3658cb"></path><path d="M439 446L438 514L510 448Z" fill="#15355e" stroke="#15355e"></path><path d="M515 94L440 59L458 109Z" fill="#15355e" stroke="#15355e"></path><path d="M351 112L294 107L299 135Z" fill="#144895" stroke="#144895"></path><path d="M257 446L314 450L287 385Z" fill="#5960ee" stroke="#5960ee"></path><path d="M667 289L645 235L612 296Z" fill="#2853b9" stroke="#2853b9"></path><path d="M612 296L645 235L594 260Z" fill="#6c63ff" stroke="#6c63ff"></path><path d="M667 289L612 296L664 340Z" fill="#3658cb" stroke="#3658cb"></path><path d="M334 63L294 107L351 112Z" fill="#5960ee" stroke="#5960ee"></path><path d="M299 135L245 155L288 194Z" fill="#6c63ff" stroke="#6c63ff"></path><path d="M440 59L383 61L415 112Z" fill="#114282" stroke="#114282"></path><path d="M514 510L562 447L510 448Z" fill="#6c63ff" stroke="#6c63ff"></path><path d="M510 448L562 447L562 394Z" fill="#133b70" stroke="#133b70"></path><path d="M601 112L552 89L566 145Z" fill="#1c4ea7" stroke="#1c4ea7"></path><path d="M515 94L507 32L440 59Z" fill="#3658cb" stroke="#3658cb"></path><path d="M645 235L637 193L595 186Z" fill="#133b70" stroke="#133b70"></path><path d="M596 148L601 112L566 145Z" fill="#1c4ea7" stroke="#1c4ea7"></path><path d="M261 106L245 155L299 135Z" fill="#15355e" stroke="#15355e"></path><path d="M249 248L204 241L247 297Z" fill="#182e4c" stroke="#182e4c"></path><path d="M207 357L243 392L251 347Z" fill="#1c4ea7" stroke="#1c4ea7"></path><path d="M251 347L243 392L287 385Z" fill="#2853b9" stroke="#2853b9"></path><path d="M203 306L251 347L247 297Z" fill="#5960ee" stroke="#5960ee"></path><path d="M333 501L403 496L342 464Z" fill="#144895" stroke="#144895"></path><path d="M342 464L403 496L386 439Z" fill="#5960ee" stroke="#5960ee"></path><path d="M187 182L204 241L266 216Z" fill="#475cdd" stroke="#475cdd"></path><path d="M383 61L334 63L351 112Z" fill="#6c63ff" stroke="#6c63ff"></path><path d="M294 107L261 106L299 135Z" fill="#3658cb" stroke="#3658cb"></path><path d="M562 447L599 434L587 415Z" fill="#144895" stroke="#144895"></path><path d="M587 415L666 416L603 356Z" fill="#182e4c" stroke="#182e4c"></path><path d="M204 241L203 306L247 297Z" fill="#5960ee" stroke="#5960ee"></path><path d="M643 106L601 112L596 148Z" fill="#133b70" stroke="#133b70"></path><path d="M664 340L612 296L603 356Z" fill="#182e4c" stroke="#182e4c"></path><path d="M691 189L662 153L637 193Z" fill="#144895" stroke="#144895"></path><path d="M287 48L261 106L294 107Z" fill="#114282" stroke="#114282"></path><path d="M245 155L187 182L266 216Z" fill="#2853b9" stroke="#2853b9"></path><path d="M666 416L664 340L603 356Z" fill="#15355e" stroke="#15355e"></path><path d="M203 306L207 357L251 347Z" fill="#5960ee" stroke="#5960ee"></path><path d="M403 496L438 514L439 446Z" fill="#475cdd" stroke="#475cdd"></path><path d="M562 447L609 495L599 434Z" fill="#114282" stroke="#114282"></path><path d="M193 446L257 446L243 392Z" fill="#144895" stroke="#144895"></path><path d="M243 392L257 446L287 385Z" fill="#114282" stroke="#114282"></path><path d="M314 450L333 501L342 464Z" fill="#2853b9" stroke="#2853b9"></path><path d="M403 496L432 545L438 514Z" fill="#1c4ea7" stroke="#1c4ea7"></path><path d="M293 496L333 501L314 450Z" fill="#144895" stroke="#144895"></path><path d="M438 514L514 510L510 448Z" fill="#144895" stroke="#144895"></path><path d="M549 49L507 32L515 94Z" fill="#3658cb" stroke="#3658cb"></path><path d="M440 59L409 0L383 61Z" fill="#6c63ff" stroke="#6c63ff"></path><path d="M295 0L287 48L334 63Z" fill="#475cdd" stroke="#475cdd"></path><path d="M549 49L515 94L552 89Z" fill="#114282" stroke="#114282"></path><path d="M617 35L549 49L552 89Z" fill="#1c4ea7" stroke="#1c4ea7"></path><path d="M664 340L687 306L667 289Z" fill="#1c4ea7" stroke="#1c4ea7"></path><path d="M667 289L699 241L645 235Z" fill="#5960ee" stroke="#5960ee"></path><path d="M637 193L662 153L596 148Z" fill="#475cdd" stroke="#475cdd"></path><path d="M601 112L617 35L552 89Z" fill="#182e4c" stroke="#182e4c"></path><path d="M691 189L637 193L645 235Z" fill="#133b70" stroke="#133b70"></path><path d="M261 106L200 158L245 155Z" fill="#3658cb" stroke="#3658cb"></path><path d="M204 241L158 265L203 306Z" fill="#5960ee" stroke="#5960ee"></path><path d="M200 158L187 182L245 155Z" fill="#1c4ea7" stroke="#1c4ea7"></path><path d="M203 306L159 358L207 357Z" fill="#475cdd" stroke="#475cdd"></path><path d="M257 446L293 496L314 450Z" fill="#2853b9" stroke="#2853b9"></path><path d="M353 0L334 63L383 61Z" fill="#6c63ff" stroke="#6c63ff"></path><path d="M334 63L287 48L294 107Z" fill="#475cdd" stroke="#475cdd"></path><path d="M261 106L188 90L200 158Z" fill="#114282" stroke="#114282"></path><path d="M662 153L643 106L596 148Z" fill="#114282" stroke="#114282"></path><path d="M687 306L699 241L667 289Z" fill="#182e4c" stroke="#182e4c"></path><path d="M662 153L696 148L643 106Z" fill="#133b70" stroke="#133b70"></path><path d="M557 555L561 511L514 510Z" fill="#5960ee" stroke="#5960ee"></path><path d="M514 510L561 511L562 447Z" fill="#3658cb" stroke="#3658cb"></path><path d="M599 434L666 416L587 415Z" fill="#2853b9" stroke="#2853b9"></path><path d="M664 340L695 354L687 306Z" fill="#3658cb" stroke="#3658cb"></path><path d="M699 241L691 189L645 235Z" fill="#1c4ea7" stroke="#1c4ea7"></path><path d="M513 0L443 0L507 32Z" fill="#144895" stroke="#144895"></path><path d="M507 32L443 0L440 59Z" fill="#144895" stroke="#144895"></path><path d="M355 541L403 496L333 501Z" fill="#1c4ea7" stroke="#1c4ea7"></path><path d="M411 560L432 545L403 496Z" fill="#114282" stroke="#114282"></path><path d="M438 514L486 541L514 510Z" fill="#182e4c" stroke="#182e4c"></path><path d="M443 0L409 0L440 59Z" fill="#144895" stroke="#144895"></path><path d="M432 545L486 541L438 514Z" fill="#144895" stroke="#144895"></path><path d="M658 433L666 416L599 434Z" fill="#114282" stroke="#114282"></path><path d="M161 210L158 265L204 241Z" fill="#475cdd" stroke="#475cdd"></path><path d="M666 416L695 354L664 340Z" fill="#114282" stroke="#114282"></path><path d="M757 284L750 248L699 241Z" fill="#475cdd" stroke="#475cdd"></path><path d="M609 495L658 433L599 434Z" fill="#1c4ea7" stroke="#1c4ea7"></path><path d="M187 182L161 210L204 241Z" fill="#3658cb" stroke="#3658cb"></path><path d="M146 134L161 210L187 182Z" fill="#1c4ea7" stroke="#1c4ea7"></path><path d="M207 357L185 401L243 392Z" fill="#3658cb" stroke="#3658cb"></path><path d="M257 446L245 509L293 496Z" fill="#3658cb" stroke="#3658cb"></path><path d="M159 358L185 401L207 357Z" fill="#1c4ea7" stroke="#1c4ea7"></path><path d="M317 545L355 541L333 501Z" fill="#5960ee" stroke="#5960ee"></path><path d="M409 0L353 0L383 61Z" fill="#2853b9" stroke="#2853b9"></path><path d="M549 49L513 0L507 32Z" fill="#144895" stroke="#144895"></path><path d="M563 0L513 0L549 49Z" fill="#133b70" stroke="#133b70"></path><path d="M590 538L609 495L561 511Z" fill="#144895" stroke="#144895"></path><path d="M561 511L609 495L562 447Z" fill="#5960ee" stroke="#5960ee"></path><path d="M136 289L159 358L203 306Z" fill="#144895" stroke="#144895"></path><path d="M355 541L411 560L403 496Z" fill="#475cdd" stroke="#475cdd"></path><path d="M432 545L438 600L486 541Z" fill="#1c4ea7" stroke="#1c4ea7"></path><path d="M232 0L232 62L287 48Z" fill="#3658cb" stroke="#3658cb"></path><path d="M287 48L232 62L261 106Z" fill="#3658cb" stroke="#3658cb"></path><path d="M200 158L146 134L187 182Z" fill="#6c63ff" stroke="#6c63ff"></path><path d="M691 189L696 148L662 153Z" fill="#1c4ea7" stroke="#1c4ea7"></path><path d="M643 106L617 35L601 112Z" fill="#144895" stroke="#144895"></path><path d="M761 144L696 148L691 189Z" fill="#475cdd" stroke="#475cdd"></path><path d="M156 417L193 446L185 401Z" fill="#133b70" stroke="#133b70"></path><path d="M185 401L193 446L243 392Z" fill="#475cdd" stroke="#475cdd"></path><path d="M293 496L317 545L333 501Z" fill="#15355e" stroke="#15355e"></path><path d="M245 509L317 545L293 496Z" fill="#114282" stroke="#114282"></path><path d="M405 600L438 600L411 560Z" fill="#6c63ff" stroke="#6c63ff"></path><path d="M158 265L136 289L203 306Z" fill="#2853b9" stroke="#2853b9"></path><path d="M83 248L136 289L158 265Z" fill="#144895" stroke="#144895"></path><path d="M232 0L217 66L232 62Z" fill="#1c4ea7" stroke="#1c4ea7"></path><path d="M232 62L217 66L261 106Z" fill="#114282" stroke="#114282"></path><path d="M651 32L617 35L643 106Z" fill="#144895" stroke="#144895"></path><path d="M588 0L563 0L549 49Z" fill="#2853b9" stroke="#2853b9"></path><path d="M189 487L245 509L257 446Z" fill="#3658cb" stroke="#3658cb"></path><path d="M353 0L295 0L334 63Z" fill="#144895" stroke="#144895"></path><path d="M154 110L188 90L141 63Z" fill="#5960ee" stroke="#5960ee"></path><path d="M217 66L188 90L261 106Z" fill="#182e4c" stroke="#182e4c"></path><path d="M83 248L110 306L136 289Z" fill="#15355e" stroke="#15355e"></path><path d="M557 555L590 538L561 511Z" fill="#144895" stroke="#144895"></path><path d="M683 490L687 458L658 433Z" fill="#15355e" stroke="#15355e"></path><path d="M557 555L514 510L486 541Z" fill="#133b70" stroke="#133b70"></path><path d="M513 600L557 555L486 541Z" fill="#5960ee" stroke="#5960ee"></path><path d="M159 358L156 417L185 401Z" fill="#182e4c" stroke="#182e4c"></path><path d="M193 446L189 487L257 446Z" fill="#182e4c" stroke="#182e4c"></path><path d="M99 417L156 417L159 358Z" fill="#144895" stroke="#144895"></path><path d="M617 35L588 0L549 49Z" fill="#182e4c" stroke="#182e4c"></path><path d="M649 509L658 433L609 495Z" fill="#182e4c" stroke="#182e4c"></path><path d="M658 433L687 458L666 416Z" fill="#475cdd" stroke="#475cdd"></path><path d="M666 416L715 417L695 354Z" fill="#133b70" stroke="#133b70"></path><path d="M687 458L715 417L666 416Z" fill="#114282" stroke="#114282"></path><path d="M757 284L699 241L687 306Z" fill="#133b70" stroke="#133b70"></path><path d="M699 241L764 214L691 189Z" fill="#475cdd" stroke="#475cdd"></path><path d="M154 110L146 134L200 158Z" fill="#15355e" stroke="#15355e"></path><path d="M757 284L687 306L754 360Z" fill="#182e4c" stroke="#182e4c"></path><path d="M649 567L649 509L590 538Z" fill="#114282" stroke="#114282"></path><path d="M590 538L649 509L609 495Z" fill="#3658cb" stroke="#3658cb"></path><path d="M141 63L188 90L217 66Z" fill="#114282" stroke="#114282"></path><path d="M188 90L154 110L200 158Z" fill="#3658cb" stroke="#3658cb"></path><path d="M83 248L158 265L161 210Z" fill="#6c63ff" stroke="#6c63ff"></path><path d="M136 289L108 336L159 358Z" fill="#1c4ea7" stroke="#1c4ea7"></path><path d="M754 360L687 306L695 354Z" fill="#1c4ea7" stroke="#1c4ea7"></path><path d="M706 52L651 32L643 106Z" fill="#1c4ea7" stroke="#1c4ea7"></path><path d="M617 35L634 0L588 0Z" fill="#144895" stroke="#144895"></path><path d="M715 109L643 106L696 148Z" fill="#144895" stroke="#144895"></path><path d="M150 495L189 487L193 446Z" fill="#2853b9" stroke="#2853b9"></path><path d="M245 509L235 535L317 545Z" fill="#3658cb" stroke="#3658cb"></path><path d="M745 112L715 109L696 148Z" fill="#15355e" stroke="#15355e"></path><path d="M405 600L411 560L355 541Z" fill="#2853b9" stroke="#2853b9"></path><path d="M411 560L438 600L432 545Z" fill="#133b70" stroke="#133b70"></path><path d="M405 600L355 541L338 600Z" fill="#133b70" stroke="#133b70"></path><path d="M217 536L235 535L245 509Z" fill="#1c4ea7" stroke="#1c4ea7"></path><path d="M338 600L355 541L317 545Z" fill="#3658cb" stroke="#3658cb"></path><path d="M110 306L108 336L136 289Z" fill="#182e4c" stroke="#182e4c"></path><path d="M156 417L135 440L193 446Z" fill="#1c4ea7" stroke="#1c4ea7"></path><path d="M750 459L757 399L715 417Z" fill="#3658cb" stroke="#3658cb"></path><path d="M649 509L683 490L658 433Z" fill="#5960ee" stroke="#5960ee"></path><path d="M715 417L754 360L695 354Z" fill="#6c63ff" stroke="#6c63ff"></path><path d="M757 399L754 360L715 417Z" fill="#6c63ff" stroke="#6c63ff"></path><path d="M783 260L764 214L750 248Z" fill="#2853b9" stroke="#2853b9"></path><path d="M750 248L764 214L699 241Z" fill="#5960ee" stroke="#5960ee"></path><path d="M783 260L750 248L757 284Z" fill="#114282" stroke="#114282"></path><path d="M438 600L513 600L486 541Z" fill="#3658cb" stroke="#3658cb"></path><path d="M606 600L649 567L590 538Z" fill="#144895" stroke="#144895"></path><path d="M649 509L713 557L683 490Z" fill="#15355e" stroke="#15355e"></path><path d="M295 0L232 0L287 48Z" fill="#1c4ea7" stroke="#1c4ea7"></path><path d="M710 0L634 0L651 32Z" fill="#5960ee" stroke="#5960ee"></path><path d="M651 32L634 0L617 35Z" fill="#15355e" stroke="#15355e"></path><path d="M189 487L217 536L245 509Z" fill="#15355e" stroke="#15355e"></path><path d="M298 600L338 600L317 545Z" fill="#2853b9" stroke="#2853b9"></path><path d="M298 600L317 545L235 535Z" fill="#5960ee" stroke="#5960ee"></path><path d="M99 417L135 440L156 417Z" fill="#2853b9" stroke="#2853b9"></path><path d="M189 487L153 554L217 536Z" fill="#182e4c" stroke="#182e4c"></path><path d="M513 600L537 600L557 555Z" fill="#2853b9" stroke="#2853b9"></path><path d="M750 459L715 417L687 458Z" fill="#6c63ff" stroke="#6c63ff"></path><path d="M810 292L783 260L757 284Z" fill="#133b70" stroke="#133b70"></path><path d="M92 96L102 156L146 134Z" fill="#475cdd" stroke="#475cdd"></path><path d="M146 134L102 156L161 210Z" fill="#475cdd" stroke="#475cdd"></path><path d="M110 306L66 292L108 336Z" fill="#114282" stroke="#114282"></path><path d="M92 96L146 134L154 110Z" fill="#2853b9" stroke="#2853b9"></path><path d="M86 202L83 248L161 210Z" fill="#133b70" stroke="#133b70"></path><path d="M108 336L99 417L159 358Z" fill="#5960ee" stroke="#5960ee"></path><path d="M810 292L757 284L754 360Z" fill="#182e4c" stroke="#182e4c"></path><path d="M745 62L706 52L715 109Z" fill="#6c63ff" stroke="#6c63ff"></path><path d="M715 109L706 52L643 106Z" fill="#133b70" stroke="#133b70"></path><path d="M745 112L696 148L761 144Z" fill="#3658cb" stroke="#3658cb"></path><path d="M761 144L691 189L764 214Z" fill="#114282" stroke="#114282"></path><path d="M810 202L761 144L764 214Z" fill="#2853b9" stroke="#2853b9"></path><path d="M102 156L86 202L161 210Z" fill="#475cdd" stroke="#475cdd"></path><path d="M239 600L298 600L235 535Z" fill="#475cdd" stroke="#475cdd"></path><path d="M196 0L141 63L217 66Z" fill="#3658cb" stroke="#3658cb"></path><path d="M135 440L150 495L193 446Z" fill="#114282" stroke="#114282"></path><path d="M217 536L239 600L235 535Z" fill="#3658cb" stroke="#3658cb"></path><path d="M232 0L196 0L217 66Z" fill="#1c4ea7" stroke="#1c4ea7"></path><path d="M58 400L99 417L108 336Z" fill="#475cdd" stroke="#475cdd"></path><path d="M135 440L99 517L150 495Z" fill="#5960ee" stroke="#5960ee"></path><path d="M606 600L590 538L557 555Z" fill="#144895" stroke="#144895"></path><path d="M736 488L750 459L687 458Z" fill="#475cdd" stroke="#475cdd"></path><path d="M37 248L66 292L83 248Z" fill="#114282" stroke="#114282"></path><path d="M83 248L66 292L110 306Z" fill="#1c4ea7" stroke="#1c4ea7"></path><path d="M736 488L687 458L683 490Z" fill="#475cdd" stroke="#475cdd"></path><path d="M810 367L810 292L754 360Z" fill="#475cdd" stroke="#475cdd"></path><path d="M537 600L606 600L557 555Z" fill="#5960ee" stroke="#5960ee"></path><path d="M713 557L736 488L683 490Z" fill="#114282" stroke="#114282"></path><path d="M784 115L745 62L745 112Z" fill="#1c4ea7" stroke="#1c4ea7"></path><path d="M745 112L745 62L715 109Z" fill="#144895" stroke="#144895"></path><path d="M706 52L710 0L651 32Z" fill="#133b70" stroke="#133b70"></path><path d="M810 367L754 360L757 399Z" fill="#1c4ea7" stroke="#1c4ea7"></path><path d="M783 260L810 202L764 214Z" fill="#2853b9" stroke="#2853b9"></path><path d="M761 144L784 115L745 112Z" fill="#114282" stroke="#114282"></path><path d="M67 167L63 190L86 202Z" fill="#144895" stroke="#144895"></path><path d="M86 202L63 190L83 248Z" fill="#2853b9" stroke="#2853b9"></path><path d="M67 167L86 202L102 156Z" fill="#1c4ea7" stroke="#1c4ea7"></path><path d="M92 96L67 167L102 156Z" fill="#133b70" stroke="#133b70"></path><path d="M186 600L239 600L217 536Z" fill="#133b70" stroke="#133b70"></path><path d="M84 41L92 96L141 63Z" fill="#6c63ff" stroke="#6c63ff"></path><path d="M141 63L92 96L154 110Z" fill="#133b70" stroke="#133b70"></path><path d="M845 201L810 202L853 255Z" fill="#1c4ea7" stroke="#1c4ea7"></path><path d="M812 138L784 115L761 144Z" fill="#3658cb" stroke="#3658cb"></path><path d="M196 0L158 0L141 63Z" fill="#144895" stroke="#144895"></path><path d="M754 0L706 52L745 62Z" fill="#6c63ff" stroke="#6c63ff"></path><path d="M754 0L710 0L706 52Z" fill="#1c4ea7" stroke="#1c4ea7"></path><path d="M812 414L810 367L757 399Z" fill="#3658cb" stroke="#3658cb"></path><path d="M789 441L757 399L750 459Z" fill="#475cdd" stroke="#475cdd"></path><path d="M99 417L82 444L135 440Z" fill="#1c4ea7" stroke="#1c4ea7"></path><path d="M150 495L153 554L189 487Z" fill="#114282" stroke="#114282"></path><path d="M58 400L82 444L99 417Z" fill="#6c63ff" stroke="#6c63ff"></path><path d="M0 300L44 333L66 292Z" fill="#133b70" stroke="#133b70"></path><path d="M66 292L44 333L108 336Z" fill="#144895" stroke="#144895"></path><path d="M810 482L750 459L736 488Z" fill="#114282" stroke="#114282"></path><path d="M810 482L789 441L750 459Z" fill="#114282" stroke="#114282"></path><path d="M606 600L652 600L649 567Z" fill="#1c4ea7" stroke="#1c4ea7"></path><path d="M649 567L713 557L649 509Z" fill="#5960ee" stroke="#5960ee"></path><path d="M44 333L58 400L108 336Z" fill="#114282" stroke="#114282"></path><path d="M0 257L37 248L0 206Z" fill="#1c4ea7" stroke="#1c4ea7"></path><path d="M63 190L37 248L83 248Z" fill="#15355e" stroke="#15355e"></path><path d="M37 248L63 190L0 206Z" fill="#15355e" stroke="#15355e"></path><path d="M99 517L153 554L150 495Z" fill="#6c63ff" stroke="#6c63ff"></path><path d="M711 600L713 557L649 567Z" fill="#133b70" stroke="#133b70"></path><path d="M810 202L812 138L761 144Z" fill="#2853b9" stroke="#2853b9"></path><path d="M786 0L754 0L745 62Z" fill="#133b70" stroke="#133b70"></path><path d="M851 149L812 138L810 202Z" fill="#3658cb" stroke="#3658cb"></path><path d="M810 202L783 260L853 255Z" fill="#475cdd" stroke="#475cdd"></path><path d="M810 482L812 414L789 441Z" fill="#144895" stroke="#144895"></path><path d="M789 441L812 414L757 399Z" fill="#475cdd" stroke="#475cdd"></path><path d="M853 255L783 260L810 292Z" fill="#1c4ea7" stroke="#1c4ea7"></path><path d="M153 554L186 600L217 536Z" fill="#3658cb" stroke="#3658cb"></path><path d="M50 509L99 517L82 444Z" fill="#6c63ff" stroke="#6c63ff"></path><path d="M82 444L99 517L135 440Z" fill="#144895" stroke="#144895"></path><path d="M153 554L164 600L186 600Z" fill="#5960ee" stroke="#5960ee"></path><path d="M0 387L49 432L58 400Z" fill="#3658cb" stroke="#3658cb"></path><path d="M58 400L49 432L82 444Z" fill="#2853b9" stroke="#2853b9"></path><path d="M0 364L58 400L44 333Z" fill="#2853b9" stroke="#2853b9"></path><path d="M103 0L84 41L141 63Z" fill="#5960ee" stroke="#5960ee"></path><path d="M92 96L39 91L67 167Z" fill="#1c4ea7" stroke="#1c4ea7"></path><path d="M853 255L810 292L856 316Z" fill="#182e4c" stroke="#182e4c"></path><path d="M850 346L810 292L810 367Z" fill="#5960ee" stroke="#5960ee"></path><path d="M810 61L784 115L836 86Z" fill="#5960ee" stroke="#5960ee"></path><path d="M810 61L745 62L784 115Z" fill="#15355e" stroke="#15355e"></path><path d="M713 557L749 552L736 488Z" fill="#3658cb" stroke="#3658cb"></path><path d="M739 600L749 552L713 557Z" fill="#114282" stroke="#114282"></path><path d="M861 388L810 367L812 414Z" fill="#144895" stroke="#144895"></path><path d="M861 388L850 346L810 367Z" fill="#133b70" stroke="#133b70"></path><path d="M110 560L164 600L153 554Z" fill="#15355e" stroke="#15355e"></path><path d="M850 346L856 316L810 292Z" fill="#2853b9" stroke="#2853b9"></path><path d="M158 0L103 0L141 63Z" fill="#6c63ff" stroke="#6c63ff"></path><path d="M652 600L711 600L649 567Z" fill="#182e4c" stroke="#182e4c"></path><path d="M800 537L736 488L749 552Z" fill="#2853b9" stroke="#2853b9"></path><path d="M800 537L810 482L736 488Z" fill="#15355e" stroke="#15355e"></path><path d="M65 542L110 560L99 517Z" fill="#1c4ea7" stroke="#1c4ea7"></path><path d="M99 517L110 560L153 554Z" fill="#3658cb" stroke="#3658cb"></path><path d="M836 86L784 115L812 138Z" fill="#133b70" stroke="#133b70"></path><path d="M0 206L63 190L67 167Z" fill="#5960ee" stroke="#5960ee"></path><path d="M37 248L0 300L66 292Z" fill="#144895" stroke="#144895"></path><path d="M53 41L92 96L84 41Z" fill="#144895" stroke="#144895"></path><path d="M53 41L39 91L92 96Z" fill="#144895" stroke="#144895"></path><path d="M0 257L0 300L37 248Z" fill="#1c4ea7" stroke="#1c4ea7"></path><path d="M900 164L851 149L845 201Z" fill="#5960ee" stroke="#5960ee"></path><path d="M845 201L851 149L810 202Z" fill="#5960ee" stroke="#5960ee"></path><path d="M900 247L845 201L853 255Z" fill="#3658cb" stroke="#3658cb"></path><path d="M0 132L0 206L67 167Z" fill="#475cdd" stroke="#475cdd"></path><path d="M0 300L0 364L44 333Z" fill="#6c63ff" stroke="#6c63ff"></path><path d="M49 432L50 509L82 444Z" fill="#2853b9" stroke="#2853b9"></path><path d="M900 365L900 306L856 316Z" fill="#2853b9" stroke="#2853b9"></path><path d="M900 306L900 247L853 255Z" fill="#2853b9" stroke="#2853b9"></path><path d="M863 451L861 388L812 414Z" fill="#6c63ff" stroke="#6c63ff"></path><path d="M851 149L836 86L812 138Z" fill="#182e4c" stroke="#182e4c"></path><path d="M810 61L786 0L745 62Z" fill="#1c4ea7" stroke="#1c4ea7"></path><path d="M37 0L53 41L84 41Z" fill="#114282" stroke="#114282"></path><path d="M39 91L0 132L67 167Z" fill="#15355e" stroke="#15355e"></path><path d="M837 37L786 0L810 61Z" fill="#3658cb" stroke="#3658cb"></path><path d="M0 364L0 387L58 400Z" fill="#475cdd" stroke="#475cdd"></path><path d="M711 600L739 600L713 557Z" fill="#15355e" stroke="#15355e"></path><path d="M0 455L50 509L49 432Z" fill="#182e4c" stroke="#182e4c"></path><path d="M788 600L800 537L749 552Z" fill="#6c63ff" stroke="#6c63ff"></path><path d="M810 482L863 451L812 414Z" fill="#2853b9" stroke="#2853b9"></path><path d="M0 92L0 132L39 91Z" fill="#3658cb" stroke="#3658cb"></path><path d="M50 509L65 542L99 517Z" fill="#114282" stroke="#114282"></path><path d="M110 560L100 600L164 600Z" fill="#1c4ea7" stroke="#1c4ea7"></path><path d="M845 514L863 451L810 482Z" fill="#114282" stroke="#114282"></path><path d="M65 542L100 600L110 560Z" fill="#5960ee" stroke="#5960ee"></path><path d="M900 86L837 37L836 86Z" fill="#144895" stroke="#144895"></path><path d="M836 86L837 37L810 61Z" fill="#144895" stroke="#144895"></path><path d="M900 306L853 255L856 316Z" fill="#3658cb" stroke="#3658cb"></path><path d="M851 149L900 86L836 86Z" fill="#475cdd" stroke="#475cdd"></path><path d="M856 316L850 346L900 365Z" fill="#2853b9" stroke="#2853b9"></path><path d="M900 365L850 346L861 388Z" fill="#114282" stroke="#114282"></path><path d="M0 48L0 92L39 91Z" fill="#6c63ff" stroke="#6c63ff"></path><path d="M50 509L0 563L65 542Z" fill="#3658cb" stroke="#3658cb"></path><path d="M65 542L44 600L100 600Z" fill="#144895" stroke="#144895"></path><path d="M0 387L0 455L49 432Z" fill="#475cdd" stroke="#475cdd"></path><path d="M900 247L900 201L845 201Z" fill="#114282" stroke="#114282"></path><path d="M900 404L900 365L861 388Z" fill="#2853b9" stroke="#2853b9"></path><path d="M800 537L845 514L810 482Z" fill="#5960ee" stroke="#5960ee"></path><path d="M863 451L900 404L861 388Z" fill="#1c4ea7" stroke="#1c4ea7"></path><path d="M856 556L845 514L800 537Z" fill="#182e4c" stroke="#182e4c"></path><path d="M900 201L900 164L845 201Z" fill="#15355e" stroke="#15355e"></path><path d="M103 0L37 0L84 41Z" fill="#6c63ff" stroke="#6c63ff"></path><path d="M53 41L0 48L39 91Z" fill="#15355e" stroke="#15355e"></path><path d="M739 600L788 600L749 552Z" fill="#133b70" stroke="#133b70"></path><path d="M900 456L900 404L863 451Z" fill="#3658cb" stroke="#3658cb"></path><path d="M37 0L0 48L53 41Z" fill="#182e4c" stroke="#182e4c"></path><path d="M900 37L842 0L837 37Z" fill="#2853b9" stroke="#2853b9"></path><path d="M837 37L842 0L786 0Z" fill="#133b70" stroke="#133b70"></path><path d="M0 455L0 514L50 509Z" fill="#6c63ff" stroke="#6c63ff"></path><path d="M900 486L863 451L845 514Z" fill="#133b70" stroke="#133b70"></path><path d="M900 486L900 456L863 451Z" fill="#133b70" stroke="#133b70"></path><path d="M900 164L900 86L851 149Z" fill="#3658cb" stroke="#3658cb"></path><path d="M0 563L44 600L65 542Z" fill="#5960ee" stroke="#5960ee"></path><path d="M788 600L856 556L800 537Z" fill="#6c63ff" stroke="#6c63ff"></path><path d="M37 0L0 0L0 48Z" fill="#144895" stroke="#144895"></path><path d="M900 556L900 486L845 514Z" fill="#2853b9" stroke="#2853b9"></path><path d="M0 514L0 563L50 509Z" fill="#3658cb" stroke="#3658cb"></path><path d="M900 86L900 37L837 37Z" fill="#133b70" stroke="#133b70"></path><path d="M900 37L900 0L842 0Z" fill="#5960ee" stroke="#5960ee"></path><path d="M788 600L864 600L856 556Z" fill="#2853b9" stroke="#2853b9"></path><path d="M856 556L900 556L845 514Z" fill="#475cdd" stroke="#475cdd"></path><path d="M0 563L0 600L44 600Z" fill="#15355e" stroke="#15355e"></path><path d="M864 600L900 556L856 556Z" fill="#5960ee" stroke="#5960ee"></path><path d="M864 600L900 600L900 556Z" fill="#2853b9" stroke="#2853b9"></path></g></svg>