<svg id="visual" viewBox="0 0 540 960" width="540" height="960" xmlns="http://www.w3.org/2000/svg" xmlns:xlink="http://www.w3.org/1999/xlink" version="1.1"><rect x="0" y="0" width="540" height="960" fill="#202731"></rect><defs><linearGradient id="grad1_0" x1="0%" y1="100%" x2="100%" y2="0%"><stop offset="30%" stop-color="#0066ff" stop-opacity="1"></stop><stop offset="70%" stop-color="#0066ff" stop-opacity="1"></stop></linearGradient></defs><defs><linearGradient id="grad1_1" x1="0%" y1="100%" x2="100%" y2="0%"><stop offset="30%" stop-color="#0066ff" stop-opacity="1"></stop><stop offset="70%" stop-color="#0055b9" stop-opacity="1"></stop></linearGradient></defs><defs><linearGradient id="grad1_2" x1="0%" y1="100%" x2="100%" y2="0%"><stop offset="30%" stop-color="#043f73" stop-opacity="1"></stop><stop offset="70%" stop-color="#0055b9" stop-opacity="1"></stop></linearGradient></defs><defs><linearGradient id="grad1_3" x1="0%" y1="100%" x2="100%" y2="0%"><stop offset="30%" stop-color="#043f73" stop-opacity="1"></stop><stop offset="70%" stop-color="#202731" stop-opacity="1"></stop></linearGradient></defs><defs><linearGradient id="grad2_0" x1="0%" y1="100%" x2="100%" y2="0%"><stop offset="30%" stop-color="#0066ff" stop-opacity="1"></stop><stop offset="70%" stop-color="#0066ff" stop-opacity="1"></stop></linearGradient></defs><defs><linearGradient id="grad2_1" x1="0%" y1="100%" x2="100%" y2="0%"><stop offset="30%" stop-color="#0055b9" stop-opacity="1"></stop><stop offset="70%" stop-color="#0066ff" stop-opacity="1"></stop></linearGradient></defs><defs><linearGradient id="grad2_2" x1="0%" y1="100%" x2="100%" y2="0%"><stop offset="30%" stop-color="#0055b9" stop-opacity="1"></stop><stop offset="70%" stop-color="#043f73" stop-opacity="1"></stop></linearGradient></defs><defs><linearGradient id="grad2_3" x1="0%" y1="100%" x2="100%" y2="0%"><stop offset="30%" stop-color="#202731" stop-opacity="1"></stop><stop offset="70%" stop-color="#043f73" stop-opacity="1"></stop></linearGradient></defs><g transform="translate(540, 960)"><path d="M-351 0C-345.8 -68.3 -340.6 -136.5 -304 -175.5C-267.4 -214.5 -199.4 -224.2 -143.5 -248.5C-87.6 -272.9 -43.8 -312 0 -351L0 0Z" fill="#1a3351"></path><path d="M-263.2 0C-259.3 -51.2 -255.4 -102.4 -228 -131.6C-200.5 -160.9 -149.5 -168.1 -107.6 -186.4C-65.7 -204.7 -32.9 -234 0 -263.2L0 0Z" fill="#004b96"></path><path d="M-175.5 0C-172.9 -34.1 -170.3 -68.3 -152 -87.8C-133.7 -107.2 -99.7 -112.1 -71.8 -124.3C-43.8 -136.5 -21.9 -156 0 -175.5L0 0Z" fill="#005edc"></path><path d="M-87.7 0C-86.4 -17.1 -85.1 -34.1 -76 -43.9C-66.8 -53.6 -49.8 -56 -35.9 -62.1C-21.9 -68.2 -11 -78 0 -87.7L0 0Z" fill="#0066ff"></path></g><g transform="translate(0, 0)"><path d="M351 0C344.2 65.5 337.4 131 304 175.5C270.6 220 210.6 243.6 155.5 269.3C100.4 295.1 50.2 323 0 351L0 0Z" fill="#1a3351"></path><path d="M263.3 0C258.1 49.1 253 98.2 228 131.6C202.9 165 157.9 182.7 116.6 202C75.3 221.3 37.7 242.3 0 263.3L0 0Z" fill="#004b96"></path><path d="M175.5 0C172.1 32.7 168.7 65.5 152 87.7C135.3 110 105.3 121.8 77.8 134.7C50.2 147.5 25.1 161.5 0 175.5L0 0Z" fill="#005edc"></path><path d="M87.8 0C86 16.4 84.3 32.7 76 43.9C67.6 55 52.6 60.9 38.9 67.3C25.1 73.8 12.6 80.8 0 87.8L0 0Z" fill="#0066ff"></path></g></svg>