<svg width="264" height="280" xmlns="http://www.w3.org/2000/svg" xmlns:xlink="http://www.w3.org/1999/xlink"><defs><path d="M12 160c0 66.274 53.726 120 120 120s120-53.726 120-120h12V0H0v160h12Z" id="c"/><path d="M124 144.611V163h4c39.765 0 72 32.235 72 72v9H0v-9c0-39.765 32.235-72 72-72h4v-18.389c-17.237-8.189-29.628-24.924-31.695-44.73C38.48 99.058 34 94.052 34 88V74c0-5.946 4.325-10.882 10-11.834V56c0-30.928 25.072-56 56-56s56 25.072 56 56v6.166c5.675.952 10 5.888 10 11.834v14c0 6.052-4.48 11.058-10.305 11.881-2.067 19.806-14.458 36.541-31.695 44.73Z" id="e"/><circle id="a" cx="120" cy="120" r="120"/></defs><g fill="none" fill-rule="evenodd"><g transform="translate(12 40)"><mask id="b" fill="#fff"><use xlink:href="#a"/></mask><use xlink:href="#a"/><g mask="url(#b)" fill="#f8f9fa"><path d="M0 0h240v240H0z"/></g></g><mask id="d" fill="#fff"><use xlink:href="#c"/></mask><g mask="url(#d)"><g transform="translate(32 36)"><mask id="f" fill="#fff"><use xlink:href="#e"/></mask><use fill="#D0C6AC" xlink:href="#e"/><g mask="url(#f)" fill="#EDB98A"><path d="M0 0h264v280H0z"/></g><path d="M156 79v23c0 30.928-25.072 56-56 56s-56-25.072-56-56V79v15c0 30.928 25.072 56 56 56s56-25.072 56-56V79Z" fill-opacity=".1" fill="#000" mask="url(#f)"/></g><g transform="translate(0 170)"><defs><path d="M105.192 29.052H104c-39.765 0-72 32.235-72 72V110h200v-8.948c0-39.765-32.235-72-72-72h-1.192c.127.983.192 1.984.192 3 0 13.807-12.088 25-27 25s-27-11.193-27-25c0-1.016.065-2.017.192-3Z" id="g"/></defs><mask id="h" fill="#fff"><use xlink:href="#g"/></mask><use fill="#212529" xlink:href="#g"/><g mask="url(#h)" fill="#FFDEB5"><path d="M0 0h264v110H0z"/></g><path d="M156 22.28c6.182 4.555 10 10.826 10 17.748 0 7.205-4.137 13.705-10.771 18.3l-5.65-4.452-4.579.332 1-3.151-.078-.061C152.022 47.853 156 42.7 156 36.876V22.28Zm-48-.709c-6.767 4.603-11 11.169-11 18.457 0 7.398 4.362 14.052 11.308 18.664l6.113-4.816 4.579.332-1-3.151.078-.061C111.978 47.853 108 42.7 108 36.876V21.572Z" fill="#F2F2F2"/></g><g fill="#000"><g transform="translate(78 134)"><defs><path d="M35.118 15.128C36.176 24.62 44.226 32 54 32c9.804 0 17.874-7.426 18.892-16.96.082-.767-.775-2.04-1.85-2.04H37.088c-1.08 0-2.075 1.178-1.97 2.128Z" id="i"/></defs><mask id="j" fill="#fff"><use xlink:href="#i"/></mask><use fill-opacity=".7" xlink:href="#i"/><rect fill="#FFF" mask="url(#j)" x="39" y="2" width="31" height="16" rx="5"/><g mask="url(#j)" fill="#FF4F6D"><g transform="translate(38 24)"><circle cx="11" cy="11" r="11"/><circle cx="21" cy="11" r="11"/></g></g></g><path d="M120 130c0 4.418 5.373 8 12 8s12-3.582 12-8" fill-opacity=".16"/><g fill-opacity=".6"><path d="M103.241 110.346a6 6 0 1 0 10.699 2.8 1.998 1.998 0 0 0-.125-.739 7.509 7.509 0 0 0-.144-.372 6.007 6.007 0 0 0-1.646-2.484c-2.126-2.234-5.519-3.551-9.027-3.551-4.834 0-8.991 2.649-10.838 6.447-.54 1.111.387 1.853 1.278 1.125 2.436-1.993 5.82-3.228 9.56-3.228.08 0 .162 0 .243.002ZM161.241 110.346a6 6 0 1 0 10.699 2.8 1.998 1.998 0 0 0-.125-.739 7.509 7.509 0 0 0-.144-.372 6.007 6.007 0 0 0-1.646-2.484c-2.126-2.234-5.519-3.551-9.027-3.551-4.834 0-8.991 2.649-10.838 6.447-.54 1.111.387 1.853 1.278 1.125 2.436-1.993 5.82-3.228 9.56-3.228.08 0 .162 0 .243.002Z"/></g><g fill-opacity=".6"><path d="m98.766 83.578.911-.402c5.242-2.081 13.188-1.209 18.046 1.123.567.272.18 1.153-.402 1.108-14.919-1.151-24.963 8.146-28.375 14.44-.101.187-.407.208-.482.034-2.308-5.319 4.45-13.985 10.302-16.303ZM162.993 94.07c5.761.773 14.746 5.795 13.994 11.607-.024.19-.312.25-.436.091-2.487-3.188-21.712-7.872-28.714-6.894-.64.09-1.063-.571-.626-.984 3.744-3.535 10.62-4.518 15.782-3.82Z"/></g></g><defs><path id="k" d="M0 0h264v280H0z"/><path d="M185.832 73.929c1.757.988 3.148 10.899 3.216 14.689.042 2.338.08 11.256-2.394 10.485-.753-.235-1.902-4.956-2.066-7.719-.163-2.763-1.733-12.164-4.141-16.49-.55-.988-2.126-2.723-1.445-3.56.844-1.036 1.664-.434 2.695-.02 1.115.45 3.937 2.504 4.135 2.615Zm.805-2.972c-.746.962-5.841-1.74-7.966-2.913-17.845-9.86-21.31-12.995-49.425-12.586-28.116.409-47.379 13.582-48.462 14.93-.754.937-1.716 3.44-2.508 10.413-.791 6.972.22 19.477-2.646 19.462-2.438-.013-2.97-23.786-1.916-33.217.161-1.448.784-4.038.333-5.34-.394-1.138-2.322-1.135-2.014-3.03.35-2.159 2.525-1.087 3.473-2.119 1.795-1.954-.974-2.417-1.433-4.126-.682-2.542 1.29-3.197 3.067-4 1.966-.887 1.71-.108 3.306-1.846-2.131-1.563-2.902-3.691.016-4.833 1.24-.485 4.465.157 5.436-.572.253-.19.353-1.28.51-1.502 1.55-2.219 1.168-3.825 1.01-6.316-.129-2.038-.112-3.909 2.329-4.112 1.628-.136 2.952 1.194 4.411 1.586 1.619.435 1.01.752 2.279-.121 2.226-1.533.711-4.52 2.476-6.303 2.423-2.446 4.01 1.14 5.956 1.41 4.222.588 2.867-3.7 5.367-5.272 2.988-1.876 3.277 2.251 5.143 2.398 1.617.127 4.529-2.993 5.938-3.575 4.183-1.726 6.255 3.13 10.237 2.511 2.89-.45 3.67-.816 6.277.828 2.53 1.595 3.132.454 5.998.432 2.025-.016 3.265 1.676 4.959 1.853.844.088 1.653-.792 2.56-.737 3.237.197 3.442 4.383 6.014 5.536 2.35 1.053 5.112-.427 7.445-.7 5.69-.668 1.793 4.647 1.954 7.819 2.233.52 4.5-1.564 6.724-1.18 3.502.604 2.18 4.233 1.368 6.68 2.427-.044 8.76-2.737 10.332.707.81 1.776-1.078 4.147-1.047 5.952.043 2.542 1.91 4.645 2.571 7.05.892 3.247 2.163 11.95-.072 14.833Z" id="o"/></defs><mask id="l" fill="#fff"><use xlink:href="#k"/></mask><g mask="url(#l)"><g transform="translate(48 72)"><defs><path d="M101.428 98.169c-2.513 2.294-5.19 3.325-8.575 2.604-.582-.124-2.957-4.538-8.853-4.538-5.897 0-8.27 4.414-8.853 4.538-3.385.721-6.062-.31-8.576-2.604-4.725-4.313-8.654-10.26-6.293-16.75 1.23-3.382 3.232-7.095 6.873-8.173 3.887-1.15 9.346-.002 13.264-.788 1.27-.254 2.656-.707 3.585-1.458.929.75 2.316 1.204 3.585 1.458 3.918.786 9.376-.362 13.264.788 3.64 1.078 5.642 4.79 6.873 8.173 2.361 6.49-1.568 12.437-6.294 16.75M140.081 26c-3.41 8.4-2.093 18.858-2.724 27.676-.513 7.167-2.02 17.91-8.384 22.539-3.255 2.367-9.179 6.345-13.431 5.235-2.927-.764-3.24-9.16-7.087-12.303-4.363-3.565-9.812-5.131-15.306-4.89-2.37.105-7.165.08-9.15 1.903-1.983-1.823-6.777-1.798-9.148-1.902-5.494-.242-10.943 1.324-15.306 4.889-3.847 3.143-4.16 11.54-7.087 12.303-4.252 1.11-10.176-2.868-13.431-5.235-6.365-4.63-7.87-15.372-8.384-22.54-.63-8.817.686-19.275-2.724-27.675-1.66 0-.565 16.129-.565 16.129v20.356c.032 15.288 9.581 38.17 30.754 46.908C63.286 111.53 75.015 115 84 115s20.714-3.14 25.892-5.277c21.173-8.737 30.722-31.95 30.754-47.238V42.13S141.74 26 140.081 26" id="m"/></defs><mask id="n" fill="#fff"><use xlink:href="#m"/></mask><use fill="#331B0C" xlink:href="#m"/><g mask="url(#n)" fill="#4A312C"><path d="M-32 0h264v244H-32z"/></g></g><g><mask id="p" fill="#fff"><use xlink:href="#o"/></mask><use fill="#2E3257" xlink:href="#o"/><g mask="url(#p)" fill="#4A312C"><path d="M0 0h264v280H0z"/></g></g></g></g></g></svg>