<svg id="visual" viewBox="0 0 900 600" width="900" height="600" xmlns="http://www.w3.org/2000/svg" xmlns:xlink="http://www.w3.org/1999/xlink" version="1.1"><path d="M0 115L113 109L225 133L338 133L450 139L563 163L675 145L788 169L900 175L900 0L788 0L675 0L563 0L450 0L338 0L225 0L113 0L0 0Z" fill="#6c63ff"></path><path d="M0 169L113 157L225 205L338 199L450 181L563 235L675 205L788 241L900 223L900 173L788 167L675 143L563 161L450 137L338 131L225 131L113 107L0 113Z" fill="#1c4ea7"></path><path d="M0 235L113 223L225 259L338 265L450 265L563 289L675 253L788 301L900 289L900 221L788 239L675 203L563 233L450 179L338 197L225 203L113 155L0 167Z" fill="#182e4c"></path><path d="M0 331L113 295L225 337L338 361L450 337L563 415L675 355L788 415L900 361L900 287L788 299L675 251L563 287L450 263L338 263L225 257L113 221L0 233Z" fill="#182e4c"></path><path d="M0 385L113 391L225 403L338 439L450 433L563 469L675 421L788 499L900 439L900 359L788 413L675 353L563 413L450 335L338 359L225 335L113 293L0 329Z" fill="#1c4ea7"></path><path d="M0 601L113 601L225 601L338 601L450 601L563 601L675 601L788 601L900 601L900 437L788 497L675 419L563 467L450 431L338 437L225 401L113 389L0 383Z" fill="#6c63ff"></path></svg>