<svg id="visual" viewBox="0 0 900 600" width="900" height="600" xmlns="http://www.w3.org/2000/svg" xmlns:xlink="http://www.w3.org/1999/xlink" version="1.1"><rect x="0" y="0" width="900" height="600" fill="#182E4C"></rect><path d="M0 503L8.8 505C17.7 507 35.3 511 53 511.7C70.7 512.3 88.3 509.7 106 507.5C123.7 505.3 141.3 503.7 159 504.3C176.7 505 194.3 508 212 510.2C229.7 512.3 247.3 513.7 265 513.8C282.7 514 300.3 513 318 510.7C335.7 508.3 353.3 504.7 371 505.5C388.7 506.3 406.3 511.7 423.8 512.7C441.3 513.7 458.7 510.3 476.2 509.3C493.7 508.3 511.3 509.7 529 511.2C546.7 512.7 564.3 514.3 582 513.2C599.7 512 617.3 508 635 506.2C652.7 504.3 670.3 504.7 688 504.3C705.7 504 723.3 503 741 504.2C758.7 505.3 776.3 508.7 794 510.3C811.7 512 829.3 512 847 512.3C864.7 512.7 882.3 513.3 891.2 513.7L900 514L900 601L891.2 601C882.3 601 864.7 601 847 601C829.3 601 811.7 601 794 601C776.3 601 758.7 601 741 601C723.3 601 705.7 601 688 601C670.3 601 652.7 601 635 601C617.3 601 599.7 601 582 601C564.3 601 546.7 601 529 601C511.3 601 493.7 601 476.2 601C458.7 601 441.3 601 423.8 601C406.3 601 388.7 601 371 601C353.3 601 335.7 601 318 601C300.3 601 282.7 601 265 601C247.3 601 229.7 601 212 601C194.3 601 176.7 601 159 601C141.3 601 123.7 601 106 601C88.3 601 70.7 601 53 601C35.3 601 17.7 601 8.8 601L0 601Z" fill="#f8f9fa" stroke-linecap="round" stroke-linejoin="miter"></path></svg>