<svg id="visual" viewBox="0 0 900 600" width="900" height="600" xmlns="http://www.w3.org/2000/svg" xmlns:xlink="http://www.w3.org/1999/xlink" version="1.1"><rect x="0" y="0" width="900" height="600" fill="#6C63FF"></rect><path d="M0 66L12.5 66.7C25 67.3 50 68.7 75 66.3C100 64 125 58 150 55.8C175 53.7 200 55.3 225 57.5C250 59.7 275 62.3 300 64.3C325 66.3 350 67.7 375 64.7C400 61.7 425 54.3 450 52C475 49.7 500 52.3 525 54.2C550 56 575 57 600 56.5C625 56 650 54 675 54.3C700 54.7 725 57.3 750 59.2C775 61 800 62 825 62.3C850 62.7 875 62.3 887.5 62.2L900 62L900 0L887.5 0C875 0 850 0 825 0C800 0 775 0 750 0C725 0 700 0 675 0C650 0 625 0 600 0C575 0 550 0 525 0C500 0 475 0 450 0C425 0 400 0 375 0C350 0 325 0 300 0C275 0 250 0 225 0C200 0 175 0 150 0C125 0 100 0 75 0C50 0 25 0 12.5 0L0 0Z" fill="#f8f9fa" stroke-linecap="round" stroke-linejoin="miter"></path></svg>